<svg width="295" height="60" viewBox="0 0 295 60" fill="none" xmlns="http://www.w3.org/2000/svg">
<g clip-path="url(#clip0_1864_865)">
<path d="M86.8838 49C84.2341 49 81.8566 48.3547 79.7513 47.064C77.6824 45.7734 76.0309 44.0166 74.7967 41.7938C73.5989 39.5711 73 37.0794 73 34.3188C73 31.5583 73.5989 29.0666 74.7967 26.8438C76.0309 24.621 77.6824 22.8643 79.7513 21.5736C81.8566 20.283 84.2341 19.6376 86.8838 19.6376C89.4247 19.6376 91.7296 20.1575 93.7985 21.1972C95.9038 22.201 97.5009 23.5813 98.5898 25.338L95.4864 29.1024C94.9056 28.2778 94.1615 27.525 93.2541 26.8438C92.3466 26.1626 91.3847 25.6248 90.3684 25.2305C89.3521 24.8361 88.372 24.6389 87.4283 24.6389C85.686 24.6389 84.1252 25.0691 82.7459 25.9296C81.4029 26.7542 80.3321 27.9014 79.5336 29.3713C78.735 30.8412 78.3357 32.4904 78.3357 34.3188C78.3357 36.1472 78.7532 37.7964 79.588 39.2663C80.4229 40.7004 81.5299 41.8476 82.9092 42.7081C84.2885 43.5685 85.813 43.9987 87.4827 43.9987C88.4628 43.9987 89.4065 43.8374 90.314 43.5147C91.2577 43.1921 92.1651 42.7081 93.0363 42.0627C93.9074 41.4174 94.7241 40.6287 95.4864 39.6965L98.5898 43.4609C97.4283 45.0743 95.7586 46.4008 93.5807 47.4405C91.4392 48.4801 89.2069 49 86.8838 49V49ZM116.729 49C113.934 49 111.429 48.3726 109.215 47.1178C107.037 45.8271 105.313 44.0883 104.043 41.9014C102.772 39.6786 102.137 37.1511 102.137 34.3188C102.137 31.4866 102.772 28.9769 104.043 26.79C105.313 24.5672 107.037 22.8284 109.215 21.5736C111.429 20.283 113.934 19.6376 116.729 19.6376C119.488 19.6376 121.956 20.283 124.134 21.5736C126.348 22.8284 128.09 24.5672 129.36 26.79C130.631 28.9769 131.266 31.4866 131.266 34.3188C131.266 37.1511 130.631 39.6786 129.36 41.9014C128.09 44.0883 126.348 45.8271 124.134 47.1178C121.956 48.3726 119.488 49 116.729 49ZM116.729 43.9449C118.435 43.9449 119.959 43.5326 121.302 42.7081C122.645 41.8476 123.698 40.7004 124.46 39.2663C125.223 37.7964 125.586 36.1472 125.549 34.3188C125.586 32.4545 125.223 30.8054 124.46 29.3713C123.698 27.9014 122.645 26.7542 121.302 25.9296C119.959 25.105 118.435 24.6927 116.729 24.6927C115.023 24.6927 113.48 25.1229 112.101 25.9834C110.758 26.8079 109.705 27.9552 108.943 29.4251C108.181 30.8592 107.818 32.4904 107.854 34.3188C107.818 36.1472 108.181 37.7964 108.943 39.2663C109.705 40.7004 110.758 41.8476 112.101 42.7081C113.48 43.5326 115.023 43.9449 116.729 43.9449ZM149.301 49C146.687 49 144.346 48.3726 142.277 47.1178C140.244 45.8271 138.629 44.0883 137.431 41.9014C136.234 39.6786 135.635 37.1511 135.635 34.3188C135.635 31.4866 136.215 28.9769 137.377 26.79C138.575 24.5672 140.19 22.8284 142.223 21.5736C144.255 20.283 146.56 19.6376 149.137 19.6376C150.553 19.6376 151.914 19.8707 153.221 20.3367C154.564 20.767 155.762 21.3764 156.814 22.1652C157.867 22.9181 158.683 23.7606 159.264 24.6927C159.881 25.589 160.19 26.5032 160.19 27.4353L158.556 27.5429V8.66709H164.164V48.4622H158.556V41.7401H159.645C159.645 42.6005 159.355 43.4609 158.774 44.3214C158.193 45.146 157.413 45.9168 156.433 46.6338C155.489 47.3508 154.382 47.9245 153.112 48.3547C151.888 48.7831 150.599 49.0014 149.301 49V49ZM150.063 44.2138C151.769 44.2138 153.275 43.7836 154.582 42.9232C155.889 42.0627 156.905 40.8976 157.631 39.4277C158.393 37.9219 158.774 36.2189 158.774 34.3188C158.774 32.4187 158.393 30.7337 157.631 29.2638C156.905 27.758 155.889 26.5749 154.582 25.7145C153.275 24.854 151.769 24.4238 150.063 24.4238C148.357 24.4238 146.851 24.854 145.544 25.7145C144.237 26.5749 143.203 27.758 142.44 29.2638C141.715 30.7337 141.352 32.4187 141.352 34.3188C141.352 36.2189 141.715 37.9219 142.44 39.4277C143.203 40.8976 144.237 42.0627 145.544 42.9232C146.851 43.7836 148.357 44.2138 150.063 44.2138ZM185.223 49C182.283 49 179.67 48.3905 177.383 47.1716C175.132 45.9168 173.354 44.2138 172.047 42.0627C170.777 39.9116 170.141 37.4379 170.141 34.6415C170.141 32.4187 170.504 30.3931 171.23 28.5647C171.956 26.7362 172.954 25.1588 174.225 23.8323C175.532 22.4699 177.074 21.4302 178.853 20.7132C180.668 19.9603 182.628 19.5839 184.733 19.5839C186.584 19.5839 188.308 19.9424 189.905 20.6594C191.503 21.3406 192.882 22.2907 194.043 23.5096C195.241 24.7286 196.149 26.1805 196.766 27.8656C197.419 29.5147 197.728 31.3252 197.691 33.2971L197.637 35.6632H174.279L173.027 31.2535H192.791L191.974 32.1677V30.8771C191.866 29.694 191.466 28.6364 190.777 27.7042C190.087 26.7721 189.216 26.0371 188.163 25.4994C187.111 24.9616 185.967 24.6927 184.733 24.6927C182.773 24.6927 181.121 25.0691 179.778 25.822C178.435 26.5391 177.419 27.6146 176.729 29.0487C176.04 30.4469 175.695 32.1857 175.695 34.265C175.695 36.2369 176.112 37.9577 176.947 39.4277C177.782 40.8617 178.962 41.9731 180.486 42.7618C182.011 43.5506 183.771 43.9449 185.768 43.9449C187.183 43.9449 188.49 43.7119 189.688 43.2458C190.922 42.7798 192.247 41.9373 193.662 40.7183L196.493 44.644C195.622 45.5045 194.552 46.2574 193.281 46.9027C192.047 47.548 190.722 48.0679 189.307 48.4622C187.927 48.8207 186.566 49 185.223 49V49ZM204.712 48.4622V20.2292H210.32V48.4622H204.712ZM207.434 13.991C206.236 13.991 205.311 13.6863 204.657 13.0768C204.004 12.4673 203.677 11.6069 203.677 10.4955C203.677 9.45582 204.004 8.61332 204.657 7.96799C205.347 7.32266 206.273 7 207.434 7C208.632 7 209.558 7.30474 210.211 7.91421C210.864 8.52369 211.191 9.38412 211.191 10.4955C211.191 11.5352 210.846 12.3777 210.156 13.023C209.503 13.6684 208.596 13.991 207.434 13.991ZM228.959 49C226.926 49 225.147 48.5339 223.623 47.6018C222.135 46.6696 220.973 45.3611 220.138 43.6761C219.34 41.991 218.94 39.9834 218.94 37.653V20.2292H224.548V36.1472C224.548 37.7964 224.803 39.2305 225.311 40.4494C225.855 41.6325 226.617 42.5467 227.597 43.1921C228.614 43.8374 229.83 44.16 231.245 44.16C232.298 44.16 233.26 43.9987 234.131 43.6761C235.002 43.3175 235.746 42.8335 236.363 42.2241C237.017 41.6146 237.525 40.8796 237.888 40.0192C238.251 39.1588 238.432 38.2266 238.432 37.2228V20.2292H244.04V48.4622H238.432V42.5467L239.412 41.9014C238.977 43.2279 238.233 44.4289 237.18 45.5045C236.164 46.58 234.948 47.4405 233.532 48.0858C232.117 48.6953 230.592 49 228.959 49V49ZM251.797 48.4622V20.2292H257.46V26.2522L256.425 26.8976C256.716 25.9654 257.169 25.0691 257.786 24.2087C258.44 23.3483 259.22 22.5954 260.128 21.9501C261.071 21.2689 262.07 20.7311 263.122 20.3367C264.211 19.9424 265.318 19.7452 266.443 19.7452C268.077 19.7452 269.511 20.0141 270.745 20.5519C271.979 21.0896 272.995 21.8963 273.794 22.9718C274.592 24.0474 275.173 25.3918 275.536 27.0051L274.665 26.79L275.046 25.8758C275.445 25.0512 275.99 24.2804 276.679 23.5634C277.405 22.8105 278.222 22.1472 279.129 21.5736C280.037 21 280.999 20.5519 282.015 20.2292C283.031 19.9065 284.03 19.7452 285.01 19.7452C287.151 19.7452 288.912 20.1754 290.291 21.0358C291.707 21.8963 292.759 23.2049 293.449 24.9616C294.175 26.7183 294.538 28.9052 294.538 31.5224V48.4622H288.875V31.8451C288.875 30.2318 288.658 28.9232 288.222 27.9193C287.823 26.8796 287.206 26.1088 286.371 25.6069C285.536 25.105 284.465 24.854 283.158 24.854C282.142 24.854 281.18 25.0333 280.273 25.3918C279.402 25.7145 278.639 26.1805 277.986 26.79C277.333 27.3995 276.825 28.1165 276.462 28.9411C276.099 29.7298 275.917 30.6082 275.917 31.5762V48.4622H270.255V31.7375C270.255 30.2676 270.037 29.0307 269.601 28.0269C269.166 26.9872 268.531 26.1985 267.696 25.6607C266.861 25.1229 265.845 24.854 264.647 24.854C263.63 24.854 262.687 25.0333 261.816 25.3918C260.944 25.7145 260.182 26.1805 259.529 26.79C258.875 27.3636 258.367 28.0627 258.004 28.8873C257.641 29.6761 257.46 30.5365 257.46 31.4686V48.4622H251.797V48.4622Z" fill="white"/>
<g clip-path="url(#clip1_1864_865)">
<path d="M57.4329 57.1117L57.4295 57.1152C57.2834 57.2598 57.1084 57.3759 56.9139 57.4554C56.7194 57.535 56.5101 57.5761 56.2982 57.5758H56.2957L3.59334 57.5758L3.59079 57.5758C3.37892 57.5761 3.16964 57.535 2.97521 57.4554C2.7808 57.3759 2.60586 57.2599 2.45979 57.1152L2.45616 57.1117C2.30969 56.9674 2.19488 56.7973 2.11709 56.6118C2.03932 56.4264 1.99975 56.2285 2 56.0293V56.0268L2 3.97341L2 3.97088C1.99975 3.77171 2.03931 3.57386 2.11707 3.38848C2.19485 3.20304 2.30964 3.03298 2.45608 2.88873L2.45609 2.88873L2.45987 2.88498C2.60596 2.74031 2.7809 2.62427 2.97529 2.54473C3.16971 2.46518 3.37899 2.42406 3.59087 2.42432H3.59334L56.2957 2.42432L56.2981 2.42432C56.5101 2.42406 56.7194 2.46519 56.9138 2.54476C57.1083 2.62431 57.2833 2.74037 57.4294 2.88506L57.433 2.88864C57.5794 3.0329 57.6942 3.20296 57.772 3.38841C57.8497 3.57379 57.8893 3.77163 57.889 3.97079V3.97341V56.0268V56.0294C57.8893 56.2285 57.8497 56.4264 57.772 56.6119C57.6942 56.7973 57.5794 56.9674 57.4329 57.1117Z" stroke="white" stroke-width="4"/>
<path d="M13.6936 38.988C13.6936 41.8805 15.1579 43.3268 18.0865 43.3268C18.4817 43.3268 18.8051 43.1937 19.0567 42.9275C19.3082 42.6791 19.434 42.3597 19.434 41.9693C19.434 41.5611 19.3082 41.2328 19.0567 40.9844C18.8051 40.7359 18.4817 40.6117 18.0865 40.6117C16.9905 40.6117 16.4425 40.0705 16.4425 38.988V32.786C16.4425 31.5438 16.155 30.5589 15.5801 29.8314C15.8676 29.4587 16.0832 29.0239 16.2269 28.5271C16.3706 28.0302 16.4425 27.4712 16.4425 26.8501V20.6481C16.4425 19.5656 16.9905 19.0244 18.0865 19.0244C18.4817 19.0244 18.8051 18.9002 19.0567 18.6517C19.3082 18.4033 19.434 18.0839 19.434 17.6935C19.434 17.3031 19.3082 16.9748 19.0567 16.7086C18.8051 16.4424 18.4817 16.3093 18.0865 16.3093C15.1579 16.3093 13.6936 17.7556 13.6936 20.6481V26.8501C13.6936 27.9326 13.1546 28.4738 12.0766 28.4738C11.6813 28.4738 11.3489 28.5981 11.0794 28.8465C10.8279 29.0949 10.7021 29.4232 10.7021 29.8314C10.7021 30.2218 10.8279 30.5412 11.0794 30.7896C11.3489 31.0381 11.6813 31.1623 12.0766 31.1623C13.1546 31.1623 13.6936 31.7035 13.6936 32.786V38.988Z" fill="white"/>
<path d="M22.1459 36.9917C22.5232 37.3466 22.9634 37.524 23.4664 37.524C23.9875 37.524 24.4277 37.3466 24.787 36.9917C25.1463 36.619 25.326 36.1842 25.326 35.6874C25.326 35.1727 25.1463 34.738 24.787 34.3831C24.4277 34.0104 23.9875 33.8241 23.4664 33.8241C22.9634 33.8241 22.5232 34.0104 22.1459 34.3831C21.7866 34.738 21.6069 35.1727 21.6069 35.6874C21.6069 36.1842 21.7866 36.619 22.1459 36.9917Z" fill="white"/>
<path d="M28.5675 36.9917C28.9448 37.3466 29.385 37.524 29.888 37.524C30.4091 37.524 30.8493 37.3466 31.2086 36.9917C31.5679 36.619 31.7476 36.1842 31.7476 35.6874C31.7476 35.1727 31.5679 34.738 31.2086 34.3831C30.8493 34.0104 30.4091 33.8241 29.888 33.8241C29.385 33.8241 28.9448 34.0104 28.5675 34.3831C28.2082 34.738 28.0285 35.1727 28.0285 35.6874C28.0285 36.1842 28.2082 36.619 28.5675 36.9917Z" fill="white"/>
<path d="M34.9892 36.9917C35.3665 37.3466 35.8067 37.524 36.3098 37.524C36.8308 37.524 37.271 37.3466 37.6303 36.9917C37.9897 36.619 38.1693 36.1842 38.1693 35.6874C38.1693 35.1727 37.9897 34.738 37.6303 34.3831C37.271 34.0104 36.8308 33.8241 36.3098 33.8241C35.8067 33.8241 35.3665 34.0104 34.9892 34.3831C34.6299 34.738 34.4502 35.1727 34.4502 35.6874C34.4502 36.1842 34.6299 36.619 34.9892 36.9917Z" fill="white"/>
<path d="M40.7371 42.9275C40.9886 43.1937 41.312 43.3268 41.7073 43.3268C44.6359 43.3268 46.1001 41.8805 46.1001 38.988V32.786C46.1001 31.7035 46.6392 31.1623 47.7172 31.1623C48.1124 31.1623 48.4358 31.0381 48.6874 30.7896C48.9569 30.5412 49.0916 30.2218 49.0916 29.8314C49.0916 29.4232 48.9569 29.0949 48.6874 28.8465C48.4358 28.5981 48.1124 28.4738 47.7172 28.4738C46.6392 28.4738 46.1001 27.9326 46.1001 26.8501V20.6481C46.1001 17.7556 44.6359 16.3093 41.7073 16.3093C41.312 16.3093 40.9886 16.4424 40.7371 16.7086C40.4856 16.9748 40.3598 17.3031 40.3598 17.6935C40.3598 18.0839 40.4856 18.4033 40.7371 18.6517C40.9886 18.9002 41.312 19.0244 41.7073 19.0244C42.8033 19.0244 43.3512 19.5656 43.3512 20.6481V26.8501C43.3512 27.4712 43.4231 28.0302 43.5668 28.5271C43.7106 29.0239 43.9262 29.4587 44.2136 29.8314C43.6387 30.5589 43.3512 31.5438 43.3512 32.786V38.988C43.3512 40.0705 42.8033 40.6117 41.7073 40.6117C41.312 40.6117 40.9886 40.7359 40.7371 40.9844C40.4856 41.2328 40.3598 41.5611 40.3598 41.9693C40.3598 42.3597 40.4856 42.6791 40.7371 42.9275Z" fill="white"/>
</g>
</g>
<defs>
<clipPath id="clip0_1864_865">
<rect width="295" height="60" fill="white"/>
</clipPath>
<clipPath id="clip1_1864_865">
<rect width="60" height="60" fill="white"/>
</clipPath>
</defs>
</svg>
