<svg xmlns="http://www.w3.org/2000/svg" width="100%" height="100%" fill="none" viewBox="0 0 125 26" preserveAspectRatio="xMidYMid meet" aria-hidden="true" role="img">
  <path fill="currentColor" d="M35.524 25.902V.808h8.819c2.939 0 5.36.52 7.259 1.56 1.9 1.039 3.31 2.496 4.23 4.372.919 1.876 1.38 4.082 1.38 6.615 0 2.533-.461 4.709-1.38 6.596-.921 1.888-2.33 3.352-4.23 4.392-1.9 1.04-4.32 1.559-7.26 1.559h-8.818Zm5.02-4.302h3.513c2.03 0 3.626-.327 4.785-.986a5.592 5.592 0 0 0 2.491-2.833c.503-1.23.753-2.706.753-4.428 0-1.721-.252-3.202-.753-4.445a5.6 5.6 0 0 0-2.49-2.85c-1.16-.657-2.755-.986-4.786-.986h-3.513V21.6ZM68.76 7.264c1.769 0 3.335.382 4.697 1.147a8.294 8.294 0 0 1 3.19 3.137c.764 1.327 1.147 2.838 1.147 4.536v.807c0 .3-.023.604-.071.915H64.375c.057.701.232 1.329.533 1.88a3.92 3.92 0 0 0 1.542 1.578c.657.371 1.416.555 2.278.555.861 0 1.542-.184 2.115-.555a3.775 3.775 0 0 0 1.326-1.451h5.127a8.174 8.174 0 0 1-1.702 3.101 8.674 8.674 0 0 1-2.94 2.187c-1.16.538-2.455.806-3.89.806l-.003-.003c-1.84 0-3.465-.388-4.876-1.164a8.376 8.376 0 0 1-3.298-3.226c-.788-1.374-1.184-2.958-1.184-4.75 0-1.791.389-3.477 1.164-4.911a8.467 8.467 0 0 1 3.282-3.37c1.409-.812 3.047-1.22 4.912-1.22Zm.038 4.053c-.813 0-1.56.18-2.24.537-.68.36-1.219.903-1.614 1.631a4.651 4.651 0 0 0-.457 1.31h8.217c-.072-1.052-.473-1.894-1.2-2.527-.729-.634-1.63-.95-2.706-.95Zm11.584 14.586V.093h5.02v25.81h-5.02Zm13.626.001L87.52 8.124h5.27l4.3 13.049 4.266-13.05h5.234l-6.489 17.78h-6.094.001Zm21.728-18.64c1.768 0 3.333.382 4.696 1.147a8.29 8.29 0 0 1 3.189 3.137c.765 1.327 1.148 2.838 1.148 4.536v.807c0 .3-.023.604-.071.915H111.35c.056.701.232 1.329.533 1.88a3.93 3.93 0 0 0 1.542 1.578c.657.371 1.416.555 2.277.555.862 0 1.543-.184 2.116-.555a3.768 3.768 0 0 0 1.326-1.451h5.127a8.187 8.187 0 0 1-1.702 3.101 8.668 8.668 0 0 1-2.941 2.187c-1.159.538-2.455.806-3.889.806l-.005-.003c-1.84 0-3.467-.388-4.876-1.164a8.373 8.373 0 0 1-3.298-3.226c-.788-1.374-1.183-2.958-1.183-4.75 0-1.791.388-3.477 1.165-4.911a8.474 8.474 0 0 1 3.281-3.37c1.41-.812 3.048-1.22 4.913-1.22Zm.037 4.053c-.813 0-1.56.18-2.241.537-.68.36-1.218.903-1.613 1.631a4.645 4.645 0 0 0-.457 1.31h8.217c-.072-1.052-.473-1.894-1.2-2.527-.729-.634-1.631-.95-2.706-.95Z"></path>
  <path fill="currentColor" fill-rule="evenodd" d="M0 .687h25v25H0v-25ZM18.915 16.56c.325-.534.653-1.067.982-1.599.656-1.064 1.312-2.127 1.938-3.207l.017-.017c.765-1.323-.035-2.82-1.477-2.82-.817-.018-1.338.435-1.738 1.096a4870.866 4870.866 0 0 1-6.048 9.89c-.66 1.097-.486 2.159.435 2.733.956.61 1.964.296 2.676-.853.625-.998 1.243-2.009 1.863-3.02.449-.736.9-1.47 1.352-2.203ZM6.611 21.834c-1.46 0-2.293-1.462-1.546-2.768a195.91 195.91 0 0 1 2.285-3.77l1-1.627 5.682-9.298c.452-.731.99-1.306 1.912-1.254 1.425.087 2.155 1.567 1.355 2.89a508.612 508.612 0 0 1-4.12 6.764c-.325.526-.649 1.051-.972 1.577a839.07 839.07 0 0 1-1.937 3.176c-.647 1.058-1.295 2.116-1.938 3.179-.4.661-.904 1.114-1.72 1.131ZM5.17 6.53c-.747 1.097-1.46 2.211-2.085 3.378-.643 1.219.26 2.612 1.633 2.612.608 0 1.13-.244 1.46-.767l.24-.377c.614-.968 1.224-1.929 1.793-2.93a1.763 1.763 0 0 0-.66-2.403c-.8-.488-1.842-.314-2.38.487Z" clip-rule="evenodd"></path>
</svg>