<svg width="400" height="100" xmlns="http://www.w3.org/2000/svg">
 <g>
  <title>Layer 1</title>
  <g id="svg_1">
   <path id="svg_2" d="m123,35.96059c1,1 1,1 1.11353,3.31665c-0.00524,1.00023 -0.01048,2.00046 -0.01587,3.03101c-0.00323,1.07959 -0.00645,2.15918 -0.00977,3.27148c-0.00838,1.13631 -0.01676,2.27262 -0.02539,3.44336c-0.00451,1.14018 -0.00902,2.28035 -0.01367,3.45508c-0.01183,2.82752 -0.02832,5.65495 -0.04883,8.48242c0.76313,-0.63938 1.52625,-1.27875 2.3125,-1.9375c4.80907,-3.69068 9.82479,-3.75443 15.6875,-3.0625c3.5568,2.10505 4.69469,3.08407 6,7c0.11609,2.17512 0.17852,4.35327 0.21094,6.53125c0.02836,1.2852 0.05672,2.57039 0.08594,3.89453c0.04131,2.04085 0.07821,4.08146 0.10449,6.12256c0.02759,1.9737 0.07457,3.94709 0.12207,5.92041c0.02973,1.77021 0.02973,1.77021 0.06006,3.57617c0.16228,2.97064 0.16228,2.97064 1.94629,4.86328c0.48517,0.3603 0.97034,0.72059 1.47021,1.0918c-1,3 -1,3 -3,4c-1.80844,0.14717 -3.62332,0.22109 -5.4375,0.25c-1.45213,0.03867 -1.45213,0.03867 -2.93359,0.07813c-2.62891,-0.32813 -2.62891,-0.32813 -4.26123,-1.39283c-2.04113,-2.88825 -1.84752,-5.81325 -1.8794,-9.22827c-0.02693,-1.05904 -0.02693,-1.05904 -0.0544,-2.13948c-0.05411,-2.25162 -0.088,-4.50303 -0.12138,-6.75505c-0.03317,-1.52802 -0.06766,-3.05602 -0.10352,-4.58398c-0.08494,-3.74269 -0.15174,-7.48531 -0.20898,-11.22852c-2.97,0.33 -5.94,0.66 -9,1c-0.07409,3.95092 -0.12857,7.90157 -0.16479,11.85303c-0.02253,2.00616 -0.06065,4.01214 -0.09888,6.01806c-0.00967,1.25684 -0.01934,2.51368 -0.0293,3.8086c-0.01571,1.16257 -0.03142,2.32514 -0.04761,3.52295c0.11239,0.92313 0.22478,1.84626 0.34058,2.79736c0.99,0.66 1.98,1.32 3,2c-0.33,1.32 -0.66,2.64 -1,4c-5.94,0 -11.88,0 -18,0c-0.66,-1.32 -1.32,-2.64 -2,-4c1.98,-0.495 1.98,-0.495 4,-1c0.02529,-6.79931 0.04284,-13.5986 0.05493,-20.39795c0.00504,-2.31446 0.01187,-4.62891 0.02051,-6.94336c0.01209,-3.32113 0.01779,-6.64223 0.02222,-9.96338c0.00516,-1.03962 0.01032,-2.07924 0.01564,-3.15036c0.00007,-0.96084 0.00015,-1.92169 0.00023,-2.91165c0.00333,-1.27241 0.00333,-1.27241 0.00672,-2.57053c0.01207,-2.12679 0.01207,-2.12679 -1.12025,-4.06277c-2.02463,-0.65213 -2.02463,-0.65213 -4,-1c0.20703,-1.89062 0.20703,-1.89062 1,-4c4.84218,-2.44389 10.61141,-3.55268 16,-3z" fill="#000000"/>
   <path id="svg_3" d="m50,42.96059c2.19303,4.07276 3.4218,7.36024 3,12c-2.08163,1.26385 -3.47486,2.01694 -5.9375,1.9375c-2.0625,-0.9375 -2.0625,-0.9375 -4.125,-3.5c-4.50436,-3.73766 -8.20222,-2.783 -13.9375,-2.4375c0,4.95 0,9.9 0,15c4.03202,0.35131 4.03202,0.35131 8,0c2.08217,-2.355 2.08217,-2.355 3,-5c1.98,0.66 3.96,1.32 6,2c0,4.95 0,9.9 0,15c-2.97,0.495 -2.97,0.495 -6,1c-0.66,-1.32 -1.32,-2.64 -2,-4c-2.97,-0.66 -5.94,-1.32 -9,-2c0,6.27 0,12.54 0,19c1.8975,-0.0825 3.795,-0.165 5.75,-0.25c1.06734,-0.04641 2.13469,-0.09281 3.23437,-0.14062c3.59097,-0.72564 4.7654,-1.77576 7.01563,-4.60938c1.25436,-2.63223 1.25436,-2.63223 2,-5c2.64,0 5.28,0 8,0c1.28608,3.85823 0.58018,6.16131 -0.25,10.125c-0.37898,1.89105 -0.37898,1.89105 -0.76562,3.82031c-0.48727,1.51207 -0.48727,1.51207 -0.98438,3.05469c-3.97017,1.32339 -7.69674,1.01213 -11.82422,0.87891c-1.2921,-0.03542 -1.2921,-0.03542 -2.6103,-0.07155c-2.75117,-0.07657 -5.50204,-0.16063 -8.25298,-0.24486c-1.86522,-0.05323 -3.73045,-0.10597 -5.5957,-0.1582c-4.57245,-0.12912 -9.14465,-0.26495 -13.7168,-0.4043c-0.33,-1.65 -0.66,-3.3 -1,-5c1.32,-0.66 2.64,-1.32 4,-2c0,-13.86 0,-27.72 0,-42c-1.32,-0.66 -2.64,-1.32 -4,-2c0.66,-1.65 1.32,-3.3 2,-5c4.76866,-0.16792 9.5375,-0.32844 14.30664,-0.48218c1.62181,-0.05331 3.24356,-0.10863 4.86523,-0.16601c2.3332,-0.08221 4.66653,-0.15716 7,-0.23072c0.72307,-0.02703 1.44613,-0.05407 2.19111,-0.08192c6.97692,-0.20607 6.97692,-0.20607 9.63702,0.96083z" fill="#000000"/>
   <path id="svg_4" d="m283,42.96059c2.74829,-0.22283 4.43565,-0.35869 6.80078,1.14453c1.67429,2.59051 1.49454,4.48817 1.38672,7.54297c-0.04061,1.4908 -0.04061,1.4908 -0.08203,3.01172c-0.03481,0.75926 -0.06961,1.51851 -0.10547,2.30078c2.97,0 5.94,0 9,0c0.04254,1.99955 0.04081,4.00042 0,6c-0.495,0.495 -0.495,0.495 -1,1c-2.64,0 -5.28,0 -8,0c0.495,12.375 0.495,12.375 1,25c5.04644,1.14936 5.04644,1.14936 9,-1c1,1 1,1 1.375,3.8125c-0.375,3.1875 -0.375,3.1875 -2.1875,5.5625c-4.70441,2.39833 -9.00626,2.27168 -14.1875,1.625c-3.00385,-1.22606 -4.35881,-2.01576 -6.10889,-4.70215c-1.17715,-3.03545 -1.11599,-5.56081 -1.08642,-8.81347c0.00644,-1.2504 0.01289,-2.50079 0.01953,-3.78907c0.01676,-1.30195 0.03351,-2.6039 0.05078,-3.94531c0.00902,-1.31742 0.01805,-2.63484 0.02734,-3.99219c0.02357,-3.25278 0.05648,-6.50521 0.09766,-9.75781c-2.4425,-0.20324 -2.4425,-0.20324 -5,0c-0.45375,0.80438 -0.9075,1.60875 -1.375,2.4375c-1.625,2.5625 -1.625,2.5625 -5.125,3.5c-3.5,0.0625 -3.5,0.0625 -6.5,-1.9375c-0.1875,-2.625 -0.1875,-2.625 0,-5c-1.98,0.99 -1.98,0.99 -4,2c0,9.24 0,18.48 0,28c2.31,0.66 4.62,1.32 7,2c-0.66,1.32 -1.32,2.64 -2,4c-7.26,0 -14.52,0 -22,0c-0.33,-1.32 -0.66,-2.64 -1,-4c0.99,-0.66 1.98,-1.32 3,-2c0.41789,-2.91064 0.41789,-2.91064 0.29297,-6.32031c-0.00967,-1.25684 -0.01934,-2.51367 -0.0293,-3.8086c-0.02513,-1.31871 -0.05027,-2.63742 -0.07617,-3.99609c-0.01505,-1.33983 -0.02873,-2.67967 -0.04102,-4.01953c-0.03545,-3.28556 -0.08487,-6.57032 -0.14648,-9.85547c-1.32,-0.66 -2.64,-1.32 -4,-2c0.26953,-1.89062 0.26953,-1.89062 1,-4c4.01362,-2.56718 9.33951,-3.86707 14,-3c1.875,2.5 1.875,2.5 3,5c0.825,-0.825 1.65,-1.65 2.5,-2.5c2.5606,-2.13485 4.34668,-2.92047 7.6875,-3.0625c3.8125,0.5625 3.8125,0.5625 5.8125,2.5625c0.495,0.99 0.495,0.99 1,2c3.52208,-1.40883 4.49788,-2.57329 6,-6c0.73031,-1.9084 1.43774,-3.82568 2.125,-5.75c0.3532,-0.98484 0.70641,-1.96969 1.07031,-2.98437c0.26555,-0.74766 0.5311,-1.49532 0.80469,-2.26563z" fill="#000000"/>
   <path id="svg_5" d="m75,55.96059c2,2 2,2 3,4c0.78375,-0.66 1.5675,-1.32 2.375,-2c4.25256,-2.82831 8.69123,-2.83874 13.625,-2c2.93423,1.79647 4.47205,2.94411 6,6c0.11891,2.14239 0.17915,4.28815 0.21094,6.43359c0.02836,1.28842 0.05672,2.57684 0.08594,3.9043c0.04128,2.05184 0.07817,4.10343 0.10449,6.15552c0.0276,1.98029 0.07457,3.96027 0.12207,5.94018c0.02973,1.77976 0.02973,1.77976 0.06006,3.59546c0.45506,3.24602 0.99152,3.93849 3.4165,5.97095c-0.1875,2.125 -0.1875,2.125 -1,4c-2.6092,1.3046 -4.58943,1.13266 -7.5,1.125c-0.97969,0.00258 -1.95938,0.00516 -2.96875,0.00781c-2.53125,-0.13281 -2.53125,-0.13281 -4.53125,-1.13281c-0.02506,-0.89308 -0.05011,-1.78616 -0.07593,-2.7063c-0.09517,-3.31555 -0.1944,-6.63094 -0.29638,-9.94629c-0.0433,-1.43452 -0.08498,-2.86909 -0.125,-4.30371c-0.05784,-2.0629 -0.1215,-4.12554 -0.18628,-6.18823c-0.03666,-1.24113 -0.07332,-2.48225 -0.11109,-3.76099c-0.07676,-3.13001 -0.07676,-3.13001 -1.20532,-6.09448c-3.43427,-0.85857 -5.61683,-0.97592 -9,0c0.06879,3.95159 0.1567,7.90225 0.26245,11.85303c0.04965,2.00579 0.08409,4.01195 0.11841,6.01806c0.05317,1.88526 0.05317,1.88526 0.10742,3.8086c0.02619,1.16257 0.05237,2.32514 0.07935,3.52295c0.14268,0.92313 0.28536,1.84626 0.43237,2.79736c0.99,0.66 1.98,1.32 3,2c-0.33,1.32 -0.66,2.64 -1,4c-6.27,0 -12.54,0 -19,0c-0.33,-1.32 -0.66,-2.64 -1,-4c0.99,-0.66 1.98,-1.32 3,-2c0.41789,-2.91064 0.41789,-2.91064 0.29297,-6.32031c-0.00967,-1.25684 -0.01934,-2.51367 -0.0293,-3.8086c-0.02513,-1.31871 -0.05027,-2.63742 -0.07617,-3.99609c-0.01505,-1.33983 -0.02873,-2.67967 -0.04102,-4.01953c-0.03545,-3.28556 -0.08487,-6.57032 -0.14648,-9.85547c-1.32,-0.66 -2.64,-1.32 -4,-2c0,-1.32 0,-2.64 0,-4c5.63799,-2.41628 9.85078,-3.72957 16,-3z" fill="#000000"/>
   <path id="svg_6" d="m187.40601,59.47619c3.00904,2.80254 3.88708,5.92774 4.40625,9.92188c0.10957,0.74121 0.21914,1.48242 0.33203,2.24609c-0.21178,3.3942 -0.80085,4.80841 -3.14453,7.31641c-3.21806,0.77461 -6.38869,0.79078 -9.6875,0.8125c-0.89268,0.02513 -1.78535,0.05027 -2.70508,0.07617c-2.202,0.05887 -4.40476,0.08796 -6.60742,0.11133c0.66,2.96999 1.32,5.94 2,9c6.22861,1.55715 11.01391,1.33603 17,-1c1,1 1,1 1.5,3.25c-0.5,2.75 -0.5,2.75 -3.375,5.5c-5.19239,3.30805 -10.54359,3.80275 -16.55469,2.875c-5.82333,-1.56858 -9.39489,-4.52351 -12.57031,-9.625c-3.27231,-6.69031 -3.14866,-15.29136 -1,-22.375c2.04408,-4.60653 5.8562,-7.88103 10,-10.62501c7.29223,-2.48896 14.05589,-1.70059 20.40625,2.51563zm-15.59375,2.92188c-2.51267,3.55239 -2.52484,6.2476 -2.8125,10.5625c3.3,0 6.6,0 10,0c1.0045,-4.31934 1.33268,-7.11221 -1,-11c-2.75404,-1.56063 -3.54707,-1.29764 -6.1875,0.4375z" fill="#000000"/>
   <path id="svg_7" d="m215.375,55.71059c1.96066,-0.03867 1.96066,-0.03867 3.96094,-0.07813c4.57873,0.41004 6.99498,1.89749 10.41406,4.82813c2.65938,3.19125 2.41012,6.66665 2.49609,10.62891c0.03287,1.19947 0.06575,2.39894 0.09961,3.63476c0.06129,2.53637 0.11857,5.07283 0.17188,7.60938c0.03416,1.19818 0.06832,2.39636 0.10351,3.63086c0.02506,1.10158 0.05012,2.20317 0.07593,3.33813c0.0411,2.81106 0.0411,2.81106 2.30298,4.65796c-0.53571,3.53571 -0.53571,3.53571 -2,5c-5.52218,0.43973 -9.88443,0.17024 -15,-2c-0.99,0.66 -1.98,1.32 -3,2c-4.67667,0.6411 -9.77884,1.1189 -14.08594,-1.05078c-2.75696,-2.27954 -4.72066,-4.33545 -5.15234,-7.9375c-0.12462,-3.90259 -0.06406,-6.41964 1.73828,-9.94922c3.97365,-3.27826 7.92176,-4.14063 12.94922,-3.98828c5.84812,0.57445 5.84812,0.57445 8.55078,1.92578c-0.14121,-1.93784 -0.28813,-3.87527 -0.4375,-5.8125c-0.08121,-1.07895 -0.16242,-2.15789 -0.24609,-3.26953c-0.21853,-2.97787 -0.21853,-2.97787 -1.31641,-5.91797c-2.31,-0.33 -4.62,-0.66 -7,-1c0.33,0.66 0.66,1.32 1,2c0.1875,3 0.1875,3 0,6c-2,2 -2,2 -5.9375,2.375c-2.9129,-0.08474 -3.77704,-0.15009 -6.125,-2c-1.31877,-3.34089 -1.11603,-4.97806 0.0625,-8.375c4.81272,-5.373 9.40622,-6.16785 16.375,-6.25zm-6.375,29.25c-0.33333,3 -0.33333,3 0,6c1.94967,2.39565 1.94967,2.39565 5.5625,2.1875c3.26714,0.20538 3.26714,0.20538 4.4375,-1.1875c0.16054,-1.87322 0.16054,-1.87322 0.125,-4c0.00258,-0.72188 0.00516,-1.44375 0.00781,-2.1875c0.06414,-1.83339 0.06414,-1.83339 -1.13281,-2.8125c-5.02509,-0.54416 -5.02509,-0.54416 -9,2z" fill="#000000"/>
   <path id="svg_8" d="m333.375,57.14809c3.41597,2.35865 5.81704,4.7926 7.375,8.6875c0.50049,4.2542 0.60993,8.04521 -0.75,12.125c-2.34853,1.17426 -3.73774,1.11508 -6.35156,1.09766c-0.85078,-0.00323 -1.70157,-0.00645 -2.57813,-0.00977c-1.33418,-0.01257 -1.33418,-0.01257 -2.69531,-0.02539c-0.89719,-0.00451 -1.79437,-0.00902 -2.71875,-0.01367c-2.21882,-0.0118 -4.4375,-0.02827 -6.65625,-0.04883c0.2952,1.27875 0.59039,2.5575 0.89453,3.875c0.16605,0.7193 0.3321,1.43859 0.50318,2.17969c0.51241,2.10253 0.51241,2.10253 2.28979,3.94531c5.27777,2.28228 10.15069,1.01437 15.3125,-1c1,1 1,1 1.375,3.3125c-0.375,2.6875 -0.375,2.6875 -2.4375,4.875c-6.50458,4.01346 -12.60583,4.48485 -19.9375,2.8125c-5.56131,-2.88364 -8.99631,-6.39041 -11.25,-12.25c-1.67971,-8.39854 -1.14084,-16.04891 3.31641,-23.54297c5.87275,-7.84972 15.51358,-9.11407 24.30859,-6.01953zm-12.5625,5.875c-2.20272,3.56993 -2.13575,5.81604 -1.8125,9.9375c1.47907,0.02689 2.95827,0.04635 4.4375,0.0625c1.23557,0.0174 1.23557,0.0174 2.49609,0.03516c2.05805,0.13501 2.05805,0.13501 3.06641,-1.09766c0.27594,-3.65622 0.44787,-6.16825 -1.3125,-9.4375c-2.80509,-2.59731 -4.22432,-1.99922 -6.875,0.5z" fill="#000000"/>
   <path id="svg_9" d="m361,55.96059c1.9375,2 1.9375,2 3,4c0.78375,-0.66 1.5675,-1.32 2.375,-2c4.25256,-2.82831 8.69123,-2.83874 13.625,-2c2.93423,1.79647 4.47205,2.94411 6,6c0.11891,2.14239 0.17915,4.28815 0.21094,6.43359c0.02836,1.28842 0.05672,2.57684 0.08594,3.9043c0.04128,2.05184 0.07817,4.10343 0.10449,6.15552c0.0276,1.98029 0.07457,3.96027 0.12207,5.94018c0.02973,1.77976 0.02973,1.77976 0.06006,3.59546c0.45506,3.24602 0.99152,3.93849 3.4165,5.97095c-0.1875,2.125 -0.1875,2.125 -1,4c-2.6018,1.3009 -4.59692,1.1684 -7.5,1.1875c-0.97969,0.01418 -1.95938,0.02836 -2.96875,0.04297c-2.53125,-0.23047 -2.53125,-0.23047 -4.53125,-2.23047c-0.27124,-2.93335 -0.27124,-2.93335 -0.30859,-6.65234c-0.02516,-1.34701 -0.05056,-2.69402 -0.07618,-4.04102c-0.02875,-2.12426 -0.05277,-4.24843 -0.07153,-6.3728c-0.02165,-2.04997 -0.06108,-4.09903 -0.10229,-6.14868c-0.01346,-1.2284 -0.02691,-2.4568 -0.04078,-3.72242c-0.16537,-3.02069 -0.16537,-3.02069 -1.69775,-5.00634c-2.86794,-1.77915 -5.54515,-0.71178 -8.70288,-0.0564c0.06879,3.95159 0.1567,7.90225 0.26245,11.85303c0.04965,2.00579 0.08409,4.01195 0.11841,6.01806c0.05317,1.88526 0.05317,1.88526 0.10742,3.8086c0.02619,1.16257 0.05237,2.32514 0.07935,3.52295c0.14268,0.92313 0.28536,1.84626 0.43237,2.79736c0.99,0.66 1.98,1.32 3,2c-0.33,1.32 -0.66,2.64 -1,4c-6.27,0 -12.54,0 -19,0c-0.33,-1.32 -0.66,-2.64 -1,-4c0.99,-0.66 1.98,-1.32 3,-2c0.41789,-2.91064 0.41789,-2.91064 0.29297,-6.32031c-0.00967,-1.25684 -0.01934,-2.51367 -0.0293,-3.8086c-0.02513,-1.31871 -0.05027,-2.63742 -0.07617,-3.99609c-0.01505,-1.33983 -0.02873,-2.67967 -0.04102,-4.01953c-0.03545,-3.28556 -0.08487,-6.57032 -0.14648,-9.85547c-1.32,-0.66 -2.64,-1.32 -4,-2c0,-1.32 0,-2.64 0,-4c5.35691,-2.04073 10.18365,-3.81429 16,-3z" fill="#000000"/>
  </g>
 </g>

</svg>