<?xml version="1.0" encoding="UTF-8"?>
<svg version="1.1" xmlns="http://www.w3.org/2000/svg" width="541" height="150">
    <path
        d="M0 0 C1 1 1 1 1.11352539 3.31665039 C1.10828857 4.31688232 1.10305176 5.31711426 1.09765625 6.34765625 C1.09443359 7.42724609 1.09121094 8.50683594 1.08789062 9.61914062 C1.07951172 10.75544922 1.07113281 11.89175781 1.0625 13.0625 C1.05798828 14.20267578 1.05347656 15.34285156 1.04882812 16.51757812 C1.03699747 19.34510351 1.0205141 22.1725264 1 25 C1.763125 24.360625 2.52625 23.72125 3.3125 23.0625 C8.12156706 19.37182063 13.13729283 19.30806965 19 20 C22.55680172 22.10504591 23.69468936 23.08406808 25 27 C25.11608802 29.17512282 25.17852358 31.35327272 25.2109375 33.53125 C25.23929687 34.81644531 25.26765625 36.10164063 25.296875 37.42578125 C25.33819374 39.466632 25.37509315 41.50723668 25.40136719 43.54833984 C25.42895803 45.5220365 25.47593537 47.49543216 25.5234375 49.46875 C25.5531665 51.23895508 25.5531665 51.23895508 25.58349609 53.04492188 C25.74577856 56.01555898 25.74577856 56.01555898 27.52978516 57.90820312 C28.01495605 58.26849609 28.50012695 58.62878906 29 59 C28 62 28 62 26 63 C24.19156337 63.14716542 22.37668434 63.2210887 20.5625 63.25 C19.11037109 63.28867188 19.11037109 63.28867188 17.62890625 63.328125 C15 63 15 63 13.36767578 61.93530273 C11.32655265 59.04705156 11.52016212 56.12205246 11.48828125 52.70703125 C11.46135445 51.64798836 11.46135445 51.64798836 11.43388367 50.56755066 C11.37976822 48.31592759 11.34588278 46.06451657 11.3125 43.8125 C11.27932781 42.28447569 11.24483823 40.75647937 11.20898438 39.22851562 C11.12404175 35.48583011 11.05723752 31.74320759 11 28 C8.03 28.33 5.06 28.66 2 29 C1.92590599 32.95092059 1.87142594 36.90157294 1.83520508 40.85302734 C1.81267749 42.85919374 1.7745643 44.86516526 1.73632812 46.87109375 C1.72666016 48.12792969 1.71699219 49.38476562 1.70703125 50.6796875 C1.6913208 51.84226074 1.67561035 53.00483398 1.65942383 54.20263672 C1.77181396 55.1257666 1.8842041 56.04889648 2 57 C2.99 57.66 3.98 58.32 5 59 C4.67 60.32 4.34 61.64 4 63 C-1.94 63 -7.88 63 -14 63 C-14.66 61.68 -15.32 60.36 -16 59 C-14.02 58.505 -14.02 58.505 -12 58 C-11.97470521 51.20069165 -11.95715651 44.40139537 -11.94506836 37.60205078 C-11.94003057 35.28759304 -11.93320019 32.9731385 -11.92456055 30.65869141 C-11.91247076 27.3375571 -11.90676625 24.01646475 -11.90234375 20.6953125 C-11.89718246 19.65569366 -11.89202118 18.61607483 -11.88670349 17.54495239 C-11.88662796 16.58410736 -11.88655243 15.62326233 -11.88647461 14.63330078 C-11.88314369 13.36089035 -11.88314369 13.36089035 -11.87974548 12.06277466 C-11.86767816 9.93597607 -11.86767816 9.93597607 -13 8 C-15.02463255 7.34786708 -15.02463255 7.34786708 -17 7 C-16.79296875 5.109375 -16.79296875 5.109375 -16 3 C-11.15781776 0.55611141 -5.38858618 -0.55267551 0 0 Z "
        fill="#000000" transform="translate(236,39)" />
    <path
        d="M0 0 C2.19302649 4.07276348 3.4217962 7.36024175 3 12 C0.91836944 13.26384713 -0.47486215 14.01693993 -2.9375 13.9375 C-5 13 -5 13 -7.0625 10.4375 C-11.56685675 6.69984227 -15.26472005 7.65450121 -21 8 C-21 12.95 -21 17.9 -21 23 C-16.96797664 23.35131202 -16.96797664 23.35131202 -13 23 C-10.91783124 20.6450037 -10.91783124 20.6450037 -10 18 C-8.02 18.66 -6.04 19.32 -4 20 C-4 24.95 -4 29.9 -4 35 C-6.97 35.495 -6.97 35.495 -10 36 C-10.66 34.68 -11.32 33.36 -12 32 C-14.97 31.34 -17.94 30.68 -21 30 C-21 36.27 -21 42.54 -21 49 C-19.1025 48.9175 -17.205 48.835 -15.25 48.75 C-14.18265625 48.70359375 -13.1153125 48.6571875 -12.015625 48.609375 C-8.42466223 47.88374004 -7.2502279 46.83362031 -5 44 C-3.74563813 41.36777038 -3.74563813 41.36777038 -3 39 C-0.36 39 2.28 39 5 39 C6.28607597 42.85822792 5.58017825 45.16130582 4.75 49.125 C4.37101562 51.01605469 4.37101562 51.01605469 3.984375 52.9453125 C3.49710938 54.45738281 3.49710938 54.45738281 3 56 C-0.97017357 57.32339119 -4.69673557 57.01212931 -8.82421875 56.87890625 C-10.11632011 56.84348976 -10.11632011 56.84348976 -11.43452454 56.80735779 C-14.18568675 56.7307872 -16.9365628 56.6467344 -19.6875 56.5625 C-21.55272037 56.5092727 -23.41795471 56.45653235 -25.28320312 56.40429688 C-29.85564996 56.27518096 -34.42785421 56.13935423 -39 56 C-39.33 54.35 -39.66 52.7 -40 51 C-38.68 50.34 -37.36 49.68 -36 49 C-36 35.14 -36 21.28 -36 7 C-37.32 6.34 -38.64 5.68 -40 5 C-39.34 3.35 -38.68 1.7 -38 0 C-33.23133605 -0.16791607 -28.46250162 -0.32844326 -23.69335938 -0.48217773 C-22.0715468 -0.53549272 -20.44979885 -0.59081357 -18.828125 -0.64819336 C-16.4949334 -0.73039833 -14.16160324 -0.80534775 -11.828125 -0.87890625 C-11.10506165 -0.90594131 -10.38199829 -0.93297638 -9.63702393 -0.96083069 C-2.66009903 -1.16689998 -2.66009903 -1.16689998 0 0 Z "
        fill="#000000" transform="translate(163,46)" />
    <path
        d="M0 0 C2.74829207 -0.22283449 4.43565179 -0.35868552 6.80078125 1.14453125 C8.47507037 3.73504373 8.29531663 5.63269555 8.1875 8.6875 C8.14689453 10.17830078 8.14689453 10.17830078 8.10546875 11.69921875 C8.07066406 12.45847656 8.03585937 13.21773437 8 14 C10.97 14 13.94 14 17 14 C17.04254356 15.99954746 17.04080783 18.00041636 17 20 C16.505 20.495 16.505 20.495 16 21 C13.36 21 10.72 21 8 21 C8.495 33.375 8.495 33.375 9 46 C14.04643583 47.14935804 14.04643583 47.14935804 18 45 C19 46 19 46 19.375 48.8125 C19 52 19 52 17.1875 54.375 C12.48308667 56.77332837 8.18123848 56.64668089 3 56 C-0.00385445 54.77393696 -1.35880553 53.98423775 -3.10888672 51.29785156 C-4.28604391 48.26239856 -4.22488215 45.73703624 -4.1953125 42.484375 C-4.18886719 41.23398438 -4.18242187 39.98359375 -4.17578125 38.6953125 C-4.15902344 37.39335938 -4.14226562 36.09140625 -4.125 34.75 C-4.11597656 33.43257812 -4.10695313 32.11515625 -4.09765625 30.7578125 C-4.07408533 27.50502538 -4.04118022 24.25260411 -4 21 C-6.44249588 20.79675574 -6.44249588 20.79675574 -9 21 C-9.45375 21.804375 -9.9075 22.60875 -10.375 23.4375 C-12 26 -12 26 -15.5 26.9375 C-19 27 -19 27 -22 25 C-22.1875 22.375 -22.1875 22.375 -22 20 C-23.98 20.99 -23.98 20.99 -26 22 C-26 31.24 -26 40.48 -26 50 C-23.69 50.66 -21.38 51.32 -19 52 C-19.66 53.32 -20.32 54.64 -21 56 C-28.26 56 -35.52 56 -43 56 C-43.33 54.68 -43.66 53.36 -44 52 C-43.01 51.34 -42.02 50.68 -41 50 C-40.58210911 47.08935621 -40.58210911 47.08935621 -40.70703125 43.6796875 C-40.71669922 42.42285156 -40.72636719 41.16601562 -40.73632812 39.87109375 C-40.76146484 38.55238281 -40.78660156 37.23367187 -40.8125 35.875 C-40.82754517 34.53517097 -40.84123387 33.19532596 -40.85351562 31.85546875 C-40.88897128 28.56991158 -40.93839151 25.28515418 -41 22 C-42.32 21.34 -43.64 20.68 -45 20 C-44.73046875 18.109375 -44.73046875 18.109375 -44 16 C-39.98638493 13.432819 -34.66049061 12.13293198 -30 13 C-28.125 15.5 -28.125 15.5 -27 18 C-26.175 17.175 -25.35 16.35 -24.5 15.5 C-21.93939853 13.36515174 -20.1533195 12.57953114 -16.8125 12.4375 C-13 13 -13 13 -11 15 C-10.505 15.99 -10.505 15.99 -10 17 C-6.47791677 15.59116671 -5.50211938 14.42670984 -4 11 C-3.26969009 9.09159893 -2.56225857 7.174324 -1.875 5.25 C-1.52179688 4.26515625 -1.16859375 3.2803125 -0.8046875 2.265625 C-0.53914063 1.51796875 -0.27359375 0.7703125 0 0 Z "
        fill="#000000" transform="translate(396,46)" />
    <path
        d="M0 0 C2 2 2 2 3 4 C3.78375 3.34 4.5675 2.68 5.375 2 C9.62755899 -0.82830526 14.06622747 -0.83874133 19 0 C21.93423195 1.79646854 23.47205355 2.9441071 25 6 C25.11890897 8.14238624 25.17914876 10.28814564 25.2109375 12.43359375 C25.23929688 13.72201172 25.26765625 15.01042969 25.296875 16.33789062 C25.3381624 18.38972672 25.37504902 20.44132235 25.40136719 22.4934082 C25.42896701 24.47369577 25.4759434 26.45368342 25.5234375 28.43359375 C25.5531665 30.21334595 25.5531665 30.21334595 25.58349609 32.02905273 C26.03856211 35.27506582 26.5750155 35.96754312 29 38 C28.8125 40.125 28.8125 40.125 28 42 C25.39080172 43.30459914 23.41057385 43.1326594 20.5 43.125 C19.5203125 43.12757812 18.540625 43.13015625 17.53125 43.1328125 C15 43 15 43 13 42 C12.97494385 41.10692139 12.9498877 40.21384277 12.92407227 39.29370117 C12.82889814 35.97814546 12.72966717 32.66276271 12.62768555 29.34741211 C12.58439207 27.91288997 12.54271301 26.47831816 12.50268555 25.04370117 C12.44484733 22.9808048 12.38119247 20.91815717 12.31640625 18.85546875 C12.27974854 17.61434326 12.24309082 16.37321777 12.20532227 15.09448242 C12.12855879 11.96446653 12.12855879 11.96446653 11 9 C7.5657338 8.14143345 5.38317487 8.02408417 2 9 C2.06878614 12.95159258 2.15670428 16.90224623 2.26245117 20.85302734 C2.31209959 22.85882336 2.34654164 24.86497687 2.38085938 26.87109375 C2.4340332 28.75634766 2.4340332 28.75634766 2.48828125 30.6796875 C2.51446533 31.84226074 2.54064941 33.00483398 2.56762695 34.20263672 C2.71031006 35.1257666 2.85299316 36.04889648 3 37 C3.99 37.66 4.98 38.32 6 39 C5.67 40.32 5.34 41.64 5 43 C-1.27 43 -7.54 43 -14 43 C-14.33 41.68 -14.66 40.36 -15 39 C-14.01 38.34 -13.02 37.68 -12 37 C-11.58210911 34.08935621 -11.58210911 34.08935621 -11.70703125 30.6796875 C-11.71669922 29.42285156 -11.72636719 28.16601562 -11.73632812 26.87109375 C-11.76146484 25.55238281 -11.78660156 24.23367187 -11.8125 22.875 C-11.82754517 21.53517097 -11.84123387 20.19532596 -11.85351562 18.85546875 C-11.88897128 15.56991158 -11.93839151 12.28515418 -12 9 C-13.32 8.34 -14.64 7.68 -16 7 C-16 5.68 -16 4.36 -16 3 C-10.36201467 0.58372057 -6.14922276 -0.7295688 0 0 Z "
        fill="#000000" transform="translate(188,59)" />
    <path
        d="M0 0 C3.00903798 2.80253537 3.88708198 5.9277424 4.40625 9.921875 C4.51582031 10.66308594 4.62539063 11.40429688 4.73828125 12.16796875 C4.52650118 15.56217367 3.93743114 16.97637673 1.59375 19.484375 C-1.6243088 20.25898533 -4.79494241 20.27515644 -8.09375 20.296875 C-8.98642578 20.32201172 -9.87910156 20.34714844 -10.79882812 20.37304688 C-13.0008277 20.43192387 -15.20358735 20.46101021 -17.40625 20.484375 C-16.74625 23.454375 -16.08625 26.424375 -15.40625 29.484375 C-9.17764138 31.04152716 -4.39233663 30.82040881 1.59375 28.484375 C2.59375 29.484375 2.59375 29.484375 3.09375 31.734375 C2.59375 34.484375 2.59375 34.484375 -0.28125 37.234375 C-5.47364332 40.54243203 -10.82484021 41.03713278 -16.8359375 40.109375 C-22.65926631 38.54080158 -26.23083126 35.5858674 -29.40625 30.484375 C-32.67855907 23.79407186 -32.55490976 15.19302105 -30.40625 8.109375 C-28.36216679 3.50285256 -24.55005194 0.22835133 -20.40625 -2.515625 C-13.11402124 -5.00458931 -6.35035539 -4.21621956 0 0 Z M-15.59375 2.921875 C-18.10641815 6.47426789 -18.11859056 9.16948347 -18.40625 13.484375 C-15.10625 13.484375 -11.80625 13.484375 -8.40625 13.484375 C-7.40175314 9.16503849 -7.07357232 6.37217113 -9.40625 2.484375 C-12.1602948 0.92374961 -12.95332022 1.18673543 -15.59375 2.921875 Z "
        fill="#000000" transform="translate(300.40625,62.515625)" />
    <path
        d="M0 0 C1.96066406 -0.03867187 1.96066406 -0.03867187 3.9609375 -0.078125 C8.53967302 0.33191102 10.95592476 1.81936408 14.375 4.75 C17.0343789 7.94125468 16.78511511 11.41665175 16.87109375 15.37890625 C16.90396484 16.57837891 16.93683594 17.77785156 16.97070312 19.01367188 C17.03199318 21.55003674 17.08927297 24.08650163 17.14257812 26.62304688 C17.17673828 27.82123047 17.21089844 29.01941406 17.24609375 30.25390625 C17.2711499 31.35549072 17.29620605 32.4570752 17.32202148 33.59204102 C17.3631173 36.40309947 17.3631173 36.40309947 19.625 38.25 C19.08928571 41.78571429 19.08928571 41.78571429 17.625 43.25 C12.10281684 43.6897294 7.74056816 43.42024104 2.625 41.25 C1.635 41.91 0.645 42.57 -0.375 43.25 C-5.05166844 43.89110173 -10.15383619 44.36890087 -14.4609375 42.19921875 C-17.21790407 39.9196781 -19.1816007 37.86377452 -19.61328125 34.26171875 C-19.73790178 30.35912836 -19.67733926 27.84208106 -17.875 24.3125 C-13.90135465 21.03424259 -9.95323917 20.17187154 -4.92578125 20.32421875 C0.92234469 20.89867234 0.92234469 20.89867234 3.625 22.25 C3.48379286 20.31215735 3.33687127 18.37473045 3.1875 16.4375 C3.10628906 15.35855469 3.02507812 14.27960938 2.94140625 13.16796875 C2.72287539 10.19010095 2.72287539 10.19010095 1.625 7.25 C-0.685 6.92 -2.995 6.59 -5.375 6.25 C-5.045 6.91 -4.715 7.57 -4.375 8.25 C-4.1875 11.25 -4.1875 11.25 -4.375 14.25 C-6.375 16.25 -6.375 16.25 -10.3125 16.625 C-13.22539646 16.54026119 -14.08953881 16.47490881 -16.4375 14.625 C-17.75627224 11.28411033 -17.55353112 9.64694265 -16.375 6.25 C-11.56228236 0.87699583 -6.96877666 0.08214668 0 0 Z M-6.375 29.25 C-6.70833333 32.25 -6.70833333 32.25 -6.375 35.25 C-4.42532721 37.64564928 -4.42532721 37.64564928 -0.8125 37.4375 C2.45463695 37.64287806 2.45463695 37.64287806 3.625 36.25 C3.78553815 34.37678052 3.78553815 34.37678052 3.75 32.25 C3.75257813 31.528125 3.75515625 30.80625 3.7578125 30.0625 C3.82195276 28.22910585 3.82195276 28.22910585 2.625 27.25 C-2.40009316 26.70584266 -2.40009316 26.70584266 -6.375 29.25 Z "
        fill="#000000" transform="translate(328.375,58.75)" />
    <path
        d="M0 0 C3.41597353 2.35864839 5.81703897 4.79259742 7.375 8.6875 C7.87549454 12.94170357 7.9849294 16.7327118 6.625 20.8125 C4.27647472 21.98676264 2.88725935 21.92758173 0.2734375 21.91015625 C-0.57734375 21.90693359 -1.428125 21.90371094 -2.3046875 21.90039062 C-3.63886719 21.88782227 -3.63886719 21.88782227 -5 21.875 C-5.8971875 21.87048828 -6.794375 21.86597656 -7.71875 21.86132812 C-9.93756648 21.84952591 -12.15625018 21.83306155 -14.375 21.8125 C-14.07980469 23.09125 -13.78460938 24.37 -13.48046875 25.6875 C-13.31442139 26.40679687 -13.14837402 27.12609375 -12.97729492 27.8671875 C-12.46487943 29.96971902 -12.46487943 29.96971902 -10.6875 31.8125 C-5.4097337 34.09477732 -0.53681419 32.82686651 4.625 30.8125 C5.625 31.8125 5.625 31.8125 6 34.125 C5.625 36.8125 5.625 36.8125 3.5625 39 C-2.94207871 43.01346346 -9.04332513 43.48484898 -16.375 41.8125 C-21.93630837 38.92885862 -25.37131246 35.4220876 -27.625 29.5625 C-29.30470799 21.16396006 -28.7658439 13.51358919 -24.30859375 6.01953125 C-18.43583778 -1.83019207 -8.79501359 -3.09454182 0 0 Z M-12.5625 5.875 C-14.76522067 9.4449266 -14.69825181 11.69103942 -14.375 15.8125 C-12.89593108 15.83939216 -11.41672517 15.85884621 -9.9375 15.875 C-8.70193359 15.89240234 -8.70193359 15.89240234 -7.44140625 15.91015625 C-5.38336062 16.04517348 -5.38336062 16.04517348 -4.375 14.8125 C-4.09905894 11.15628089 -3.92713382 8.64425147 -5.6875 5.375 C-8.49259441 2.77769036 -9.91181644 3.37578407 -12.5625 5.875 Z "
        fill="#000000" transform="translate(446.375,60.1875)" />
    <path
        d="M0 0 C1.9375 2 1.9375 2 3 4 C3.78375 3.34 4.5675 2.68 5.375 2 C9.62755899 -0.82830526 14.06622747 -0.83874133 19 0 C21.93423195 1.79646854 23.47205355 2.9441071 25 6 C25.11890897 8.14238624 25.17914876 10.28814564 25.2109375 12.43359375 C25.23929687 13.72201172 25.26765625 15.01042969 25.296875 16.33789062 C25.3381624 18.38972672 25.37504902 20.44132235 25.40136719 22.4934082 C25.42896701 24.47369577 25.4759434 26.45368342 25.5234375 28.43359375 C25.5531665 30.21334595 25.5531665 30.21334595 25.58349609 32.02905273 C26.03856211 35.27506582 26.5750155 35.96754312 29 38 C28.8125 40.125 28.8125 40.125 28 42 C25.39820337 43.30089831 23.4030812 43.16840078 20.5 43.1875 C19.5203125 43.20167969 18.540625 43.21585938 17.53125 43.23046875 C15 43 15 43 13 41 C12.72875977 38.06665039 12.72875977 38.06665039 12.69140625 34.34765625 C12.66624773 33.00064669 12.64084969 31.65364158 12.61523438 30.30664062 C12.58647839 28.18238461 12.56246208 26.05820594 12.54370117 23.93383789 C12.52205245 21.88387023 12.48261772 19.83481024 12.44140625 17.78515625 C12.42795166 16.55676025 12.41449707 15.32836426 12.40063477 14.06274414 C12.23526098 11.0420455 12.23526098 11.0420455 10.70288086 9.05639648 C7.83494462 7.27724808 5.15773076 8.34462192 2 9 C2.06878614 12.95159258 2.15670428 16.90224623 2.26245117 20.85302734 C2.31209959 22.85882336 2.34654164 24.86497687 2.38085938 26.87109375 C2.4340332 28.75634766 2.4340332 28.75634766 2.48828125 30.6796875 C2.51446533 31.84226074 2.54064941 33.00483398 2.56762695 34.20263672 C2.71031006 35.1257666 2.85299316 36.04889648 3 37 C3.99 37.66 4.98 38.32 6 39 C5.67 40.32 5.34 41.64 5 43 C-1.27 43 -7.54 43 -14 43 C-14.33 41.68 -14.66 40.36 -15 39 C-14.01 38.34 -13.02 37.68 -12 37 C-11.58210911 34.08935621 -11.58210911 34.08935621 -11.70703125 30.6796875 C-11.71669922 29.42285156 -11.72636719 28.16601562 -11.73632812 26.87109375 C-11.76146484 25.55238281 -11.78660156 24.23367187 -11.8125 22.875 C-11.82754517 21.53517097 -11.84123387 20.19532596 -11.85351562 18.85546875 C-11.88897128 15.56991158 -11.93839151 12.28515418 -12 9 C-13.32 8.34 -14.64 7.68 -16 7 C-16 5.68 -16 4.36 -16 3 C-10.64308514 0.95927053 -5.81634638 -0.81428849 0 0 Z "
        fill="#000000" transform="translate(474,59)" />
</svg>