<?xml version="1.0" encoding="UTF-8"?>
<svg version="1.1" xmlns="http://www.w3.org/2000/svg" width="720" height="279">
<path d="M0 0 C7.26 0 14.52 0 22 0 C22 7.59 22 15.18 22 23 C14.74 23 7.48 23 0 23 C0 15.41 0 7.82 0 0 Z " fill="#000000" transform="translate(40,24)"/>
<path d="M0 0 C6.93 0 13.86 0 21 0 C21.020625 3.444375 21.04125 6.88875 21.0625 10.4375 C21.071604 11.52474365 21.08070801 12.6119873 21.09008789 13.73217773 C21.09258545 14.58239502 21.09508301 15.4326123 21.09765625 16.30859375 C21.10551147 17.62041626 21.10551147 17.62041626 21.11352539 18.95874023 C21 21 21 21 20 22 C18.59651265 22.09860131 17.18819523 22.13078937 15.78125 22.1328125 C14.50701172 22.13474609 14.50701172 22.13474609 13.20703125 22.13671875 C11.86705078 22.13091797 11.86705078 22.13091797 10.5 22.125 C9.60667969 22.12886719 8.71335937 22.13273437 7.79296875 22.13671875 C6.94347656 22.13542969 6.09398438 22.13414063 5.21875 22.1328125 C4.43435547 22.13168457 3.64996094 22.13055664 2.84179688 22.12939453 C1 22 1 22 0 21 C-0.08685603 19.43827255 -0.10702219 17.87270656 -0.09765625 16.30859375 C-0.09515869 15.45837646 -0.09266113 14.60815918 -0.09008789 13.73217773 C-0.08098389 12.64493408 -0.07187988 11.55769043 -0.0625 10.4375 C-0.041875 6.993125 -0.02125 3.54875 0 0 Z " fill="#000000" transform="translate(82,24)"/>
<path d="M0 0 C6.6 0 13.2 0 20 0 C20.020625 3.279375 20.04125 6.55875 20.0625 9.9375 C20.071604 10.97253662 20.08070801 12.00757324 20.09008789 13.07397461 C20.09258545 13.88358643 20.09508301 14.69319824 20.09765625 15.52734375 C20.10551147 16.77632446 20.10551147 16.77632446 20.11352539 18.05053711 C20 20 20 20 19 21 C17.58429877 21.08651611 16.164405 21.10704904 14.74609375 21.09765625 C13.9770874 21.09515869 13.20808105 21.09266113 12.41577148 21.09008789 C11.43294189 21.08098389 10.4501123 21.07187988 9.4375 21.0625 C4.7659375 21.0315625 4.7659375 21.0315625 0 21 C0 14.07 0 7.14 0 0 Z " fill="#000000" transform="translate(123,24)"/>
<path d="M0 0 C2.66698622 1.53885653 5.19354645 3.21337204 7.5625 5.1875 C6.0029735 9.01542868 3.72618164 11.55109864 0.5625 14.1875 C-1.91935976 14.04567944 -3.22996904 13.29126548 -5.4375 12.1875 C-7.35153076 11.99081266 -7.35153076 11.99081266 -9.4375 12 C-10.13875 11.98582031 -10.84 11.97164062 -11.5625 11.95703125 C-13.68274938 12.02237677 -13.68274938 12.02237677 -15.4375 14.1875 C-15.90236718 17.30946336 -15.90236718 17.30946336 -16.0625 20.8125 C-16.18625 22.91625 -16.31 25.02 -16.4375 27.1875 C-8.5175 27.1875 -0.5975 27.1875 7.5625 27.1875 C7.5625 31.1475 7.5625 35.1075 7.5625 39.1875 C-0.3575 39.1875 -8.2775 39.1875 -16.4375 39.1875 C-16.42964478 41.99689087 -16.42964478 41.99689087 -16.42163086 44.86303711 C-16.40553312 51.03771346 -16.39402767 57.21238486 -16.38568783 63.38707638 C-16.38045986 67.13233037 -16.37336378 70.87756176 -16.36206055 74.62280273 C-16.35122859 78.23431687 -16.34522251 81.84580921 -16.34262276 85.45733833 C-16.34076906 86.83810329 -16.33714951 88.218867 -16.33176994 89.59962273 C-16.32455553 91.52725952 -16.32409191 93.45491807 -16.32397461 95.38256836 C-16.321754 96.48177109 -16.31953339 97.58097382 -16.31724548 98.71348572 C-16.4375 101.1875 -16.4375 101.1875 -17.4375 102.1875 C-19.43549572 102.28623816 -21.43707158 102.31721799 -23.4375 102.3125 C-24.530625 102.31507813 -25.62375 102.31765625 -26.75 102.3203125 C-29.4375 102.1875 -29.4375 102.1875 -30.4375 101.1875 C-30.53146057 99.25443502 -30.55493517 97.31791162 -30.55102539 95.38256836 C-30.55094986 94.14135727 -30.55087433 92.90014618 -30.55079651 91.62132263 C-30.54568911 90.2566626 -30.5404731 88.89200298 -30.53515625 87.52734375 C-30.533292 86.13871817 -30.53186813 84.75009193 -30.53086853 83.36146545 C-30.52704387 79.70028885 -30.51721403 76.0391517 -30.50616455 72.37799072 C-30.49594932 68.64457737 -30.49137067 64.91115766 -30.48632812 61.17773438 C-30.47559171 53.84763823 -30.45851591 46.51757464 -30.4375 39.1875 C-31.21996094 39.19910156 -32.00242188 39.21070313 -32.80859375 39.22265625 C-33.82050781 39.23167969 -34.83242187 39.24070313 -35.875 39.25 C-36.88433594 39.26160156 -37.89367187 39.27320313 -38.93359375 39.28515625 C-41.4375 39.1875 -41.4375 39.1875 -42.4375 38.1875 C-42.58060287 34.5183423 -42.47971662 30.86034559 -42.4375 27.1875 C-38.4775 27.1875 -34.5175 27.1875 -30.4375 27.1875 C-30.48390625 26.2696875 -30.5303125 25.351875 -30.578125 24.40625 C-30.82060359 16.16197803 -30.83051335 9.86936902 -25.01171875 3.66796875 C-18.0483394 -2.57568147 -8.48469927 -4.14701594 0 0 Z " fill="#000000" transform="translate(237.4375,25.8125)"/>
<path d="M0 0 C4.62 0 9.24 0 14 0 C14.33 10.23 14.66 20.46 15 31 C17.97 29.35 20.94 27.7 24 26 C34.39810347 23.40047413 45.12211674 23.6962587 54.4765625 29.16796875 C62.67054945 35.11685401 67.27844093 43.07216481 69 53 C69.08649418 54.62033675 69.12782178 56.24356805 69.12939453 57.86621094 C69.13254669 58.80358093 69.13569885 59.74095093 69.13894653 60.70672607 C69.13591019 62.20541229 69.13591019 62.20541229 69.1328125 63.734375 C69.13376923 64.7681427 69.13472595 65.8019104 69.13571167 66.86700439 C69.1363908 69.04561423 69.13455515 71.22422611 69.13037109 73.40283203 C69.12499732 76.75167322 69.13033627 80.10038161 69.13671875 83.44921875 C69.13605835 85.56510446 69.13477797 87.6809901 69.1328125 89.796875 C69.13483673 90.80409607 69.13686096 91.81131714 69.13894653 92.84906006 C69.13421829 94.23620209 69.13421829 94.23620209 69.12939453 95.65136719 C69.12859894 96.4690155 69.12780334 97.28666382 69.12698364 98.12908936 C69 100 69 100 68 101 C65.81360547 101.07258946 63.62499611 101.08373783 61.4375 101.0625 C59.64119141 101.04896484 59.64119141 101.04896484 57.80859375 101.03515625 C56.41833984 101.01775391 56.41833984 101.01775391 55 101 C54.99453156 100.16887192 54.99453156 100.16887192 54.98895264 99.32095337 C54.94688245 93.51221973 54.87736844 87.70425832 54.79248047 81.89599609 C54.7643937 79.73331455 54.74311852 77.5705327 54.72900391 75.40771484 C54.70740362 72.28431293 54.66066607 69.16210157 54.609375 66.0390625 C54.60814636 65.08448151 54.60691772 64.12990051 54.60565186 63.14639282 C54.45627631 56.17555926 53.47137459 48.4480463 48.29705811 43.3085022 C42.10344608 38.74211856 36.4436544 38.29738419 29 39 C23.88738094 40.34904402 20.92261485 42.63787788 18.0625 47.0625 C15.88618808 50.90608818 14.8791149 54.12775738 14.81054688 58.54736328 C14.78547058 59.92361374 14.78547058 59.92361374 14.7598877 61.32766724 C14.74631226 62.31524017 14.73273682 63.30281311 14.71875 64.3203125 C14.70034058 65.33471405 14.68193115 66.3491156 14.66296387 67.39425659 C14.58417189 71.74140749 14.51635197 76.08871328 14.44775391 80.43603516 C14.39617716 83.60587589 14.33888327 86.77557706 14.28125 89.9453125 C14.26767456 90.9369339 14.25409912 91.9285553 14.2401123 92.95022583 C14.22339478 93.86142181 14.20667725 94.7726178 14.18945312 95.71142578 C14.17692505 96.51734161 14.16439697 97.32325745 14.15148926 98.15359497 C14 100 14 100 13 101 C11.00200428 101.09873816 9.00042842 101.12971799 7 101.125 C5.906875 101.12757813 4.81375 101.13015625 3.6875 101.1328125 C1 101 1 101 0 100 C-0.09533653 96.8949275 -0.12551126 93.81213542 -0.11352539 90.70678711 C-0.11367142 89.73128403 -0.11381744 88.75578094 -0.1139679 87.75071716 C-0.11326833 84.50957047 -0.10547391 81.26848046 -0.09765625 78.02734375 C-0.09579222 75.78674857 -0.09436825 73.54615298 -0.09336853 71.30555725 C-0.08954213 65.3954049 -0.0797108 59.48527695 -0.06866455 53.57513428 C-0.05845306 47.54944183 -0.05387147 41.52374547 -0.04882812 35.49804688 C-0.03808864 23.66535384 -0.02101076 11.83267894 0 0 Z " fill="#000000" transform="translate(469,27)"/>
<path d="M0 0 C4.62 0 9.24 0 14 0 C14 4.29 14 8.58 14 13 C11.37670316 14.31164842 9.36301375 14.13262846 6.4375 14.125 C5.44621094 14.12757812 4.45492187 14.13015625 3.43359375 14.1328125 C1 14 1 14 0 13 C-0.14393457 8.66469082 -0.04212061 4.33842269 0 0 Z " fill="#000000" transform="translate(666,27)"/>
<path d="M0 0 C4.62 0 9.24 0 14 0 C14 4.95 14 9.9 14 15 C21.92 15 29.84 15 38 15 C38 18.96 38 22.92 38 27 C30.08 27 22.16 27 14 27 C14.11986839 33.47799357 14.24250784 39.95580934 14.37231445 46.43359375 C14.4156301 48.637338 14.45730759 50.84111508 14.49731445 53.04492188 C14.55509844 56.21234024 14.61876976 59.37959386 14.68359375 62.546875 C14.70030624 63.53242371 14.71701874 64.51797241 14.73423767 65.53338623 C14.75418289 66.4540387 14.77412811 67.37469116 14.79467773 68.32324219 C14.81022202 69.1315448 14.8257663 69.93984741 14.84178162 70.77264404 C14.99702135 72.95806731 15.40008809 74.89708581 16 77 C22.10774307 77.93117374 22.10774307 77.93117374 28.1875 77.25 C31.42492083 76.96222926 31.8700402 77.30529267 34.3125 79.25 C37 82 37 82 38 85 C31.94740737 90.34052291 26.65261819 91.42862705 18.75 91.24609375 C13.08356992 90.73901265 9.39885237 89.27450994 5.1875 85.4375 C-1.18184318 76.6153637 -0.40028542 65.61969772 -0.29296875 55.2734375 C-0.28736255 53.67347616 -0.2830973 52.07350962 -0.28010559 50.47354126 C-0.26873728 46.29450874 -0.23934079 42.11579686 -0.20599365 37.93688965 C-0.17511835 33.65979345 -0.16156321 29.38264465 -0.14648438 25.10546875 C-0.11446194 16.73681676 -0.06176121 8.3684854 0 0 Z " fill="#000000" transform="translate(344,38)"/>
<path d="M0 0 C8.20751075 8.95830176 10.81235938 18.05794549 10.73046875 29.96484375 C10.5625 32.1875 10.5625 32.1875 9.5625 33.1875 C7.62943502 33.28146057 5.69291162 33.30493517 3.75756836 33.30102539 C2.51635727 33.30094986 1.27514618 33.30087433 -0.00367737 33.30079651 C-1.3683374 33.29568911 -2.73299702 33.2904731 -4.09765625 33.28515625 C-5.48628183 33.283292 -6.87490807 33.28186813 -8.26353455 33.28086853 C-11.92471115 33.27704387 -15.5858483 33.26721403 -19.24700928 33.25616455 C-22.98042263 33.24594932 -26.71384234 33.24137067 -30.44726562 33.23632812 C-37.77736177 33.22559171 -45.10742536 33.20851591 -52.4375 33.1875 C-51.9896798 34.467175 -51.53364694 35.74397774 -51.07421875 37.01953125 C-50.69463013 38.08651245 -50.69463013 38.08651245 -50.30737305 39.17504883 C-47.83394357 44.89732757 -41.80111068 48.4150571 -36.4375 51.1875 C-27.43967986 53.98174493 -18.93925922 51.4802798 -10.4375 48.1875 C-8.74615414 47.22983255 -7.06989856 46.24251314 -5.4375 45.1875 C-4.23495476 46.42303276 -3.05083768 47.67652339 -1.875 48.9375 C-0.88306641 49.98164062 -0.88306641 49.98164062 0.12890625 51.046875 C1.5625 53.1875 1.5625 53.1875 1.5546875 55.26171875 C-1.12858021 60.46979349 -8.77439418 63.16811914 -14.0625 65.0625 C-25.08571022 67.98347684 -37.69951624 67.29990528 -47.796875 61.93359375 C-57.75985976 55.79866857 -63.56244689 47.34372008 -67.05078125 36.234375 C-68.99369536 25.95066799 -67.38979911 15.54639709 -61.859375 6.6484375 C-60.16075579 4.36065757 -58.38429717 2.26684506 -56.4375 0.1875 C-55.91414063 -0.37710938 -55.39078125 -0.94171875 -54.8515625 -1.5234375 C-48.59506623 -7.53577782 -39.42892441 -11.37571967 -30.76953125 -11.875 C-19.14736565 -11.56351817 -8.57731338 -8.06235273 0 0 Z M-49.28125 12.44140625 C-51.30758747 15.50144967 -52.4375 17.45831528 -52.4375 21.1875 C-36.5975 21.1875 -20.7575 21.1875 -4.4375 21.1875 C-5.99845965 13.38270176 -10.08928649 8.69991667 -16.4375 4.1875 C-28.08913886 -1.7738036 -41.50564397 2.6540882 -49.28125 12.44140625 Z " fill="#000000" transform="translate(319.4375,62.8125)"/>
<path d="M0 0 C2.2218102 1.55400713 4.04942167 3.1036044 6 5 C4.61811547 8.21043882 3.07578097 10.04936365 0.375 12.25 C-0.25664062 12.77078125 -0.88828125 13.2915625 -1.5390625 13.828125 C-2.02117187 14.21484375 -2.50328125 14.6015625 -3 15 C-3.61488281 14.65066406 -4.22976563 14.30132812 -4.86328125 13.94140625 C-5.67152344 13.48636719 -6.47976563 13.03132813 -7.3125 12.5625 C-8.11300781 12.11003906 -8.91351563 11.65757813 -9.73828125 11.19140625 C-15.4549125 8.18005473 -21.51344565 8.07293931 -27.703125 9.71875 C-35.88417794 12.75602714 -40.15153079 17.30306157 -44 25 C-46.62100641 33.73668802 -44.30446761 41.39106477 -40.375 49.25 C-36.26280722 54.01148637 -29.94560855 57.66854339 -23.58203125 58.203125 C-15.10280327 58.34663803 -9.18503431 56.71517876 -2 52 C0.64 54.64 3.28 57.28 6 60 C3.9215637 64.15687261 3.13256074 64.89029372 -0.6875 67.125 C-1.51636719 67.62257813 -2.34523438 68.12015625 -3.19921875 68.6328125 C-12.88775612 73.36222405 -24.12897447 73.49425281 -34.375 70.4375 C-45.11351474 66.32395605 -52.64599025 58.6663164 -57.3125 48.25 C-61.04517271 38.05152602 -60.88758794 27.25418435 -56.87890625 17.18359375 C-52.19263147 7.63846184 -44.91494194 0.60447871 -35.0078125 -3.34375 C-23.38474628 -7.14272884 -10.56077786 -6.17296652 0 0 Z " fill="#000000" transform="translate(449,57)"/>
<path d="M0 0 C0.66 -1.98 1.32 -3.96 2 -6 C6.29 -6 10.58 -6 15 -6 C15 18.75 15 43.5 15 69 C10.71 69 6.42 69 2 69 C1.67 67.02 1.34 65.04 1 63 C0.43152344 63.28746094 -0.13695312 63.57492188 -0.72265625 63.87109375 C-2.94573885 64.97310211 -5.17976701 66.033412 -7.4375 67.0625 C-8.17871094 67.40410156 -8.91992188 67.74570313 -9.68359375 68.09765625 C-19.33471109 71.85719774 -30.72803549 70.94503242 -40.24609375 67.3203125 C-50.2444575 62.52677073 -56.06035356 54.96491872 -60.375 44.9375 C-63.60199101 35.27008576 -63.41111202 23.91759472 -59.38671875 14.52734375 C-54.16992901 5.01956077 -47.00652555 -1.69115406 -37 -5.875 C-24.05664787 -9.63786594 -11.09749659 -7.39833106 0 0 Z M-44.81640625 16.203125 C-49.44802429 23.23462434 -49.93871668 29.65470556 -49 38 C-47.15541083 43.91214477 -43.49336316 49.29206476 -38.37109375 52.80078125 C-31.4854003 56.34906802 -25.75574565 58.60090705 -18 57 C-10.02802786 54.26675241 -4.03225886 50.52785018 0 43 C2.98699606 36.78828847 2.9773051 29.53338163 1.53515625 22.84375 C-1.34242651 15.35181856 -6.97448373 10.13918105 -14.16015625 6.88671875 C-25.7623614 3.26402196 -37.4512093 6.43850128 -44.81640625 16.203125 Z " fill="#000000" transform="translate(634,59)"/>
<path d="M0 0 C4.62 0 9.24 0 14 0 C14.02255209 9.63113018 14.0409157 19.26224295 14.05181217 28.89339352 C14.05704074 33.36505549 14.06413789 37.83669853 14.07543945 42.30834961 C14.08626929 46.62011973 14.09227704 50.93187159 14.09487724 55.24365425 C14.09673132 56.89236298 14.1003516 58.54107066 14.10573006 60.18977165 C14.11294178 62.49103872 14.11399089 64.7922294 14.11352539 67.09350586 C14.115746 68.4058873 14.11796661 69.71826874 14.12025452 71.07041931 C14 74 14 74 13 75 C8.71 75 4.42 75 0 75 C0 50.25 0 25.5 0 0 Z " fill="#000000" transform="translate(666,53)"/>
<path d="M0 0 C6.93 0 13.86 0 21 0 C21 6.93 21 13.86 21 21 C14.07 21 7.14 21 0 21 C0 14.07 0 7.14 0 0 Z " fill="#000000" transform="translate(40,66)"/>
<path d="M0 0 C6.27 0 12.54 0 19 0 C20.13945516 2.27891033 20.12894214 3.56782104 20.1328125 6.09765625 C20.13474609 7.29938477 20.13474609 7.29938477 20.13671875 8.52539062 C20.13285156 9.36263672 20.12898438 10.19988281 20.125 11.0625 C20.13080078 12.32416992 20.13080078 12.32416992 20.13671875 13.61132812 C20.12662682 19.87337318 20.12662682 19.87337318 19 21 C17.58429877 21.08651611 16.164405 21.10704904 14.74609375 21.09765625 C13.89208984 21.09443359 13.03808594 21.09121094 12.15820312 21.08789062 C11.26037109 21.07951172 10.36253906 21.07113281 9.4375 21.0625 C8.53580078 21.05798828 7.63410156 21.05347656 6.70507812 21.04882812 C4.46998686 21.03700225 2.23502563 21.0205222 0 21 C-1.24078003 17.2776599 -1.14555459 13.81203967 -1.125 9.9375 C-1.12886719 9.20466797 -1.13273437 8.47183594 -1.13671875 7.71679688 C-1.12668491 2.25336982 -1.12668491 2.25336982 0 0 Z " fill="#000000" transform="translate(83,66)"/>
<path d="M0 0 C3.37762534 0.7840916 4.53313985 1.08074979 6.5 3.8125 C7.92041821 6.65333641 7.81452272 8.66727278 7.5 11.8125 C5.32443497 15.03233624 3.80738498 15.72307891 0.0625 16.8125 C-3.5 16.8125 -3.5 16.8125 -6.375 15.25 C-8.95248068 12.29347805 -9.5 10.72282112 -9.5 6.8125 C-7.36999687 2.12649312 -5.40760772 -0.28969327 0 0 Z " fill="#000000" transform="translate(135.5,68.1875)"/>
<path d="M0 0 C0.804375 -0.00128906 1.60875 -0.00257812 2.4375 -0.00390625 C3.283125 -0.00003906 4.12875 0.00382812 5 0.0078125 C6.2684375 0.00201172 6.2684375 0.00201172 7.5625 -0.00390625 C8.366875 -0.00261719 9.17125 -0.00132813 10 0 C10.7425 0.00112793 11.485 0.00225586 12.25 0.00341797 C14 0.1328125 14 0.1328125 15 1.1328125 C15.09860131 2.53629985 15.13078937 3.94461727 15.1328125 5.3515625 C15.13474609 6.62580078 15.13474609 6.62580078 15.13671875 7.92578125 C15.13285156 8.81910156 15.12898438 9.71242188 15.125 10.6328125 C15.13080078 11.97279297 15.13080078 11.97279297 15.13671875 13.33984375 C15.13542969 14.18933594 15.13414063 15.03882812 15.1328125 15.9140625 C15.13168457 16.69845703 15.13055664 17.48285156 15.12939453 18.29101562 C15 20.1328125 15 20.1328125 14 21.1328125 C12.66956375 21.2311846 11.33406656 21.26359842 10 21.265625 C9.195625 21.26691406 8.39125 21.26820313 7.5625 21.26953125 C6.716875 21.26566406 5.87125 21.26179688 5 21.2578125 C4.154375 21.26167969 3.30875 21.26554687 2.4375 21.26953125 C1.633125 21.26824219 0.82875 21.26695312 0 21.265625 C-0.7425 21.26449707 -1.485 21.26336914 -2.25 21.26220703 C-4 21.1328125 -4 21.1328125 -5 20.1328125 C-5.09860131 18.72932515 -5.13078937 17.32100773 -5.1328125 15.9140625 C-5.13410156 15.06457031 -5.13539062 14.21507813 -5.13671875 13.33984375 C-5.13285156 12.44652344 -5.12898438 11.55320312 -5.125 10.6328125 C-5.12886719 9.73949219 -5.13273437 8.84617187 -5.13671875 7.92578125 C-5.13542969 7.07628906 -5.13414063 6.22679688 -5.1328125 5.3515625 C-5.13168457 4.56716797 -5.13055664 3.78277344 -5.12939453 2.97460938 C-4.88422693 -0.51509706 -3.03649131 0.00461273 0 0 Z " fill="#000000" transform="translate(45,106.8671875)"/>
<path d="M0 0 C3.38677089 2.45000447 4.78698584 3.86392446 5.5625 8 C4.86165197 11.73785618 3.75456634 13.39432914 1 16 C-2.00031716 17.15396814 -3.51952637 17.12583833 -6.625 16.3125 C-9.39783241 14.78014525 -10.60857119 13.86015922 -12 11 C-11.93108944 7.14100853 -11.52415508 4.78623262 -9.375 1.5625 C-5.99762021 -0.65946039 -3.96476406 -0.62601538 0 0 Z " fill="#000000" transform="translate(96,111)"/>
<path d="M0 0 C3.32878632 2.46040728 4.79301948 3.89610387 5.5625 8 C4.86165197 11.73785618 3.75456634 13.39432914 1 16 C-2.31236007 17.39467793 -3.74202139 17.08093447 -7.1875 16 C-10 14 -10 14 -11.5625 10.6875 C-12.07785508 6.34379286 -11.4630926 4.56723756 -9 1 C-5.63633609 -0.1212213 -3.52465728 -0.42295887 0 0 Z " fill="#000000" transform="translate(138,111)"/>
<path d="M0 0 C4.29 0 8.58 0 13 0 C13 4.62 13 9.24 13 14 C8.71 14 4.42 14 0 14 C0 9.38 0 4.76 0 0 Z " fill="#000000" transform="translate(552,114)"/>
<path d="M0 0 C2.33294775 -0.04241723 4.66702567 -0.04092937 7 0 C8 1 8 1 8.0625 4.5625 C8.041875 5.696875 8.02125 6.83125 8 8 C5.36 8 2.72 8 0 8 C0 5.36 0 2.72 0 0 Z " fill="#000000" transform="translate(133,146)"/>
<path d="M0 0 C2.31 0 4.62 0 7 0 C7 2.64 7 5.28 7 8 C4.69 8 2.38 8 0 8 C0 5.36 0 2.72 0 0 Z " fill="#000000" transform="translate(430,146)"/>
<path d="M0 0 C2.31 0 4.62 0 7 0 C7 18.81 7 37.62 7 57 C4.69 57 2.38 57 0 57 C0 38.19 0 19.38 0 0 Z " fill="#000000" transform="translate(569,146)"/>
<path d="M0 0 C2.31 0 4.62 0 7 0 C7 6.6 7 13.2 7 20 C9.64 18.35 12.28 16.7 15 15 C21.83341944 13.29164514 26.9543899 13.23089908 33.109375 16.671875 C38.70473901 20.60250261 41.81057459 25.22027515 43 32 C43.49196298 38.10034091 42.95419057 43.5415949 40 49 C35.16028063 54.51015668 30.18746887 57.92176791 22.8125 58.4375 C17.1640913 58.35191805 12.78256006 55.79565097 8 53 C7.67 54.32 7.34 55.64 7 57 C4.69 57 2.38 57 0 57 C0 38.19 0 19.38 0 0 Z M11 25 C7.87136712 29.11462627 6.66247634 32.89109089 6.875 38.0625 C7.64300948 43.3011331 10.0500411 46.57390833 14 50 C18.00156182 52.00078091 22.66066305 51.6335671 27 51 C30.83274351 48.98205377 33.21494234 46.29705179 35.4375 42.625 C36.81674351 36.18853029 36.55882739 31.59244304 33 26 C30.21954494 22.78509884 28.26976671 21.26372528 23.94921875 20.76171875 C18.45021632 20.58126789 15.19730321 21.09553189 11 25 Z " fill="#000000" transform="translate(640,146)"/>
<path d="M0 0 C3.96 0 7.92 0 12 0 C12 3.96 12 7.92 12 12 C8.04 12 4.08 12 0 12 C0 8.04 0 4.08 0 0 Z " fill="#000000" transform="translate(38,150)"/>
<path d="M0 0 C3.96 0 7.92 0 12 0 C12 3.63 12 7.26 12 11 C8.04 11 4.08 11 0 11 C0 7.37 0 3.74 0 0 Z " fill="#000000" transform="translate(62,150)"/>
<path d="M0 0 C3.63 0 7.26 0 11 0 C11 3.63 11 7.26 11 11 C3.28515625 11.09765625 3.28515625 11.09765625 1 11 C0 10 0 10 -0.09765625 7.71484375 C-0.06510417 5.14322917 -0.03255208 2.57161458 0 0 Z " fill="#000000" transform="translate(86,150)"/>
<path d="M0 0 C2.64 0 5.28 0 8 0 C8.33 2.64 8.66 5.28 9 8 C13.29 8.33 17.58 8.66 22 9 C22 10.98 22 12.96 22 15 C21 16 21 16 18.05859375 16.09765625 C16.86363281 16.08605469 15.66867187 16.07445312 14.4375 16.0625 C12.64119141 16.04896484 12.64119141 16.04896484 10.80859375 16.03515625 C9.88175781 16.02355469 8.95492188 16.01195312 8 16 C8.10967098 20.27137254 8.2403499 24.54184766 8.375 28.8125 C8.4059375 30.02744141 8.436875 31.24238281 8.46875 32.49414062 C8.50742187 33.65751953 8.54609375 34.82089844 8.5859375 36.01953125 C8.6173584 37.09307861 8.6487793 38.16662598 8.68115234 39.27270508 C8.81592307 42.2160765 8.81592307 42.2160765 11 45 C13.03018844 45 15.06157844 44.99459549 17.08984375 44.90625 C19 45 19 45 21 46.5 C21.495 47.2425 21.495 47.2425 22 48 C21 51 21 51 18.9375 52.1875 C13.47052523 53.69964196 9.64379741 53.8218987 4.625 51.3125 C1.34206636 48.4203918 0.17788977 46.26524359 -0.16851807 41.85409546 C-0.23174924 39.19578189 -0.22461589 36.54562227 -0.1953125 33.88671875 C-0.19106766 32.43239189 -0.19106766 32.43239189 -0.18673706 30.94868469 C-0.17556991 27.86149595 -0.15047152 24.77460061 -0.125 21.6875 C-0.11496573 19.59049899 -0.10584066 17.49349342 -0.09765625 15.39648438 C-0.07564188 10.2642104 -0.04113571 5.1321549 0 0 Z " fill="#000000" transform="translate(397,152)"/>
<path d="M0 0 C2.31 0 4.62 0 7 0 C8.94863925 1.94863925 8.1291874 4.8980872 8.13894653 7.49121094 C8.1369223 8.40161133 8.13489807 9.31201172 8.1328125 10.25 C8.13376923 11.17844727 8.13472595 12.10689453 8.13571167 13.06347656 C8.13639355 15.03059965 8.13453872 16.99772496 8.13037109 18.96484375 C8.12502295 21.98703026 8.13031582 25.00906815 8.13671875 28.03125 C8.13605797 29.93750033 8.13477681 31.84375057 8.1328125 33.75 C8.13483673 34.66040039 8.13686096 35.57080078 8.13894653 36.50878906 C8.11494969 42.88505031 8.11494969 42.88505031 7 44 C4.69 44 2.38 44 0 44 C0 29.48 0 14.96 0 0 Z " fill="#000000" transform="translate(133,160)"/>
<path d="M0 0 C3.7251064 5.00561172 4.28615864 9.26897536 4.1953125 15.39453125 C4.1924826 16.11992599 4.18965271 16.84532074 4.18673706 17.59269714 C4.17559799 19.89530368 4.15050566 22.19751227 4.125 24.5 C4.11496206 26.06705165 4.10583763 27.63410943 4.09765625 29.20117188 C4.0756793 33.03009978 4.04119339 36.85873256 4 40.6875 C1.66705225 40.72991723 -0.66702567 40.72842937 -3 40.6875 C-4.868553 38.818947 -4.21950019 35.66735787 -4.28125 33.16796875 C-4.29965942 32.51298904 -4.31806885 31.85800934 -4.33703613 31.18318176 C-4.3959407 29.08054823 -4.44864706 26.9778307 -4.5 24.875 C-4.56783126 22.1183248 -4.64161346 19.36189736 -4.71875 16.60546875 C-4.74904297 15.37594482 -4.77933594 14.1464209 -4.81054688 12.87963867 C-4.96368934 10.29930652 -5.24446165 8.14261728 -6 5.6875 C-10.75812587 4.9070169 -14.75587362 4.32557232 -19.4375 5.6875 C-22.7181593 8.24801457 -23.94974899 10.75266393 -25 14.6875 C-25.49304805 19.1630828 -25.60158182 23.62534212 -25.6875 28.125 C-25.72166016 29.33349609 -25.75582031 30.54199219 -25.79101562 31.78710938 C-25.87309835 34.75381349 -25.94238015 37.72023676 -26 40.6875 C-28.31 40.6875 -30.62 40.6875 -33 40.6875 C-34.17550604 36.48376794 -34.16196842 32.39137525 -34.16796875 28.0546875 C-34.17129715 27.22164093 -34.17462555 26.38859436 -34.17805481 25.53030396 C-34.183108 23.77362621 -34.18546363 22.01693891 -34.18530273 20.26025391 C-34.18749774 17.56527108 -34.20569341 14.87069216 -34.22460938 12.17578125 C-34.22754187 10.4687514 -34.22952763 8.76171961 -34.23046875 7.0546875 C-34.24124702 5.84218826 -34.24124702 5.84218826 -34.25224304 4.60519409 C-34.22883541 -1.08366459 -34.22883541 -1.08366459 -32 -3.3125 C-28.875 -3.4375 -28.875 -3.4375 -26 -3.3125 C-26 -1.6625 -26 -0.0125 -26 1.6875 C-25.48050781 1.33816406 -24.96101562 0.98882812 -24.42578125 0.62890625 C-23.72839844 0.17386719 -23.03101563 -0.28117188 -22.3125 -0.75 C-21.28576172 -1.42869141 -21.28576172 -1.42869141 -20.23828125 -2.12109375 C-13.57972319 -5.6653524 -5.85999753 -4.51708143 0 0 Z " fill="#000000" transform="translate(185,163.3125)"/>
<path d="M0 0 C3.7251064 5.00561172 4.28615864 9.26897536 4.1953125 15.39453125 C4.1924826 16.11992599 4.18965271 16.84532074 4.18673706 17.59269714 C4.17559799 19.89530368 4.15050566 22.19751227 4.125 24.5 C4.11496206 26.06705165 4.10583763 27.63410943 4.09765625 29.20117188 C4.0756793 33.03009978 4.04119339 36.85873256 4 40.6875 C1.66705225 40.72991723 -0.66702567 40.72842937 -3 40.6875 C-4.86721787 38.82028213 -4.17520408 35.66258776 -4.2109375 33.16796875 C-4.23901569 31.82225366 -4.26768022 30.4765507 -4.296875 29.13085938 C-4.33808294 27.0044806 -4.3749587 24.87832591 -4.40136719 22.75170898 C-4.42903687 20.70248254 -4.47491621 18.65429353 -4.5234375 16.60546875 C-4.54325684 15.37594482 -4.56307617 14.1464209 -4.58349609 12.87963867 C-5.02896241 9.46552845 -5.52390556 8.04435411 -8 5.6875 C-12.52544787 4.57468495 -14.88307513 4.32924108 -19.3125 5.75 C-22.59117042 8.11369263 -23.45753567 9.97310676 -25 13.6875 C-25.49504537 16.86624708 -25.49504537 16.86624708 -25.51171875 20.1796875 C-25.54716797 21.37851563 -25.58261719 22.57734375 -25.61914062 23.8125 C-25.64169922 25.05 -25.66425781 26.2875 -25.6875 27.5625 C-25.72166016 28.82320312 -25.75582031 30.08390625 -25.79101562 31.3828125 C-25.87325167 34.48428616 -25.94248468 37.58548569 -26 40.6875 C-28.33294775 40.72991723 -30.66702567 40.72842937 -33 40.6875 C-34.94863925 38.73886075 -34.1291874 35.7894128 -34.13894653 33.19628906 C-34.1369223 32.28588867 -34.13489807 31.37548828 -34.1328125 30.4375 C-34.13376923 29.50905273 -34.13472595 28.58060547 -34.13571167 27.62402344 C-34.13639355 25.65690035 -34.13453872 23.68977504 -34.13037109 21.72265625 C-34.12502295 18.70046974 -34.13031582 15.67843185 -34.13671875 12.65625 C-34.13605797 10.74999967 -34.13477681 8.84374943 -34.1328125 6.9375 C-34.13483673 6.02709961 -34.13686096 5.11669922 -34.13894653 4.17871094 C-34.11494969 -2.19755031 -34.11494969 -2.19755031 -33 -3.3125 C-31.00041636 -3.35330783 -28.99954746 -3.35504356 -27 -3.3125 C-26.34 -1.9925 -25.68 -0.6725 -25 0.6875 C-23.948125 0.048125 -22.89625 -0.59125 -21.8125 -1.25 C-14.74487284 -5.54600867 -6.53908113 -5.04054171 0 0 Z " fill="#000000" transform="translate(233,163.3125)"/>
<path d="M0 0 C4.56323565 4.81101315 6.99348677 9.58629631 7.3515625 16.2578125 C7.01884351 22.84749703 4.6802947 28.60217972 0.19921875 33.484375 C-5.45335638 38.40340985 -10.89847993 39.87461999 -18.2734375 39.8203125 C-26.53663899 38.55428657 -32.31545797 33.70266063 -37.2734375 27.1953125 C-39.25011887 20.52401286 -39.59919969 12.84405422 -36.7109375 6.3828125 C-33.12169449 0.34113299 -27.42426049 -3.96481248 -20.7109375 -5.9296875 C-12.97027737 -6.4926446 -5.99037738 -5.10291407 0 0 Z M-27.6484375 7.3828125 C-30.82943877 12.15431441 -30.76385786 16.17602001 -30.2734375 21.8203125 C-28.54631568 26.00176534 -25.95236139 28.24506578 -22.2734375 30.8203125 C-18.2061384 32.17607887 -14.54090899 32.60611682 -10.40234375 31.171875 C-5.72754055 28.81939339 -2.99004086 25.77826691 -1.2734375 20.8203125 C-0.43378064 14.94271449 -1.3283513 11.40260393 -4.71484375 6.51953125 C-7.81108818 3.14392642 -11.26875239 2.12101527 -15.7734375 1.4453125 C-20.67132771 2.17999603 -24.27181577 3.73961537 -27.6484375 7.3828125 Z " fill="#000000" transform="translate(284.2734375,165.1796875)"/>
<path d="M0 0 C2.31 0 4.62 0 7 0 C11.25739655 8.07937755 14.90114586 16.32094677 18.37109375 24.76293945 C18.69851563 25.55659912 19.0259375 26.35025879 19.36328125 27.16796875 C19.65501221 27.88235107 19.94674316 28.5967334 20.24731445 29.33276367 C20.88140309 30.99924366 20.88140309 30.99924366 22 32 C22.24645264 31.41621582 22.49290527 30.83243164 22.74682617 30.23095703 C23.89037299 27.52754295 25.03891171 24.82627578 26.1875 22.125 C26.57486328 21.2071875 26.96222656 20.289375 27.36132812 19.34375 C34.56571127 2.43428873 34.56571127 2.43428873 37 0 C38.99958364 -0.04080783 41.00045254 -0.04254356 43 0 C43.495 0.99 43.495 0.99 44 2 C43.21484375 4.26806641 43.21484375 4.26806641 41.9375 7.1015625 C41.47327637 8.14248047 41.00905273 9.18339844 40.53076172 10.25585938 C39.77303467 11.92358398 39.77303467 11.92358398 39 13.625 C37.98155612 15.89834132 36.96332717 18.17177894 35.9453125 20.4453125 C35.19169434 22.11835449 35.19169434 22.11835449 34.42285156 23.82519531 C32.24114028 28.69324156 30.12568094 33.58959692 28.01953125 38.49072266 C26.10932605 42.89067395 26.10932605 42.89067395 25 44 C22.66702567 44.04092937 20.33294775 44.04241723 18 44 C16.07907119 39.75007936 14.15851359 35.49999123 12.23828125 31.24975586 C11.58668745 29.80765387 10.93499697 28.36559557 10.28320312 26.92358398 C9.96802734 26.22628174 9.65285156 25.52897949 9.328125 24.81054688 C9.01645386 24.12108978 8.70478271 23.43163269 8.38366699 22.72128296 C7.76583452 21.35279984 7.14904491 19.9838454 6.5333252 18.6144104 C5.25767197 15.77723142 3.97434765 12.9452607 2.65429688 10.12841797 C2.28884766 9.34225098 1.92339844 8.55608398 1.546875 7.74609375 C1.24104492 7.10212646 0.93521484 6.45815918 0.62011719 5.79467773 C0 4 0 4 0 0 Z " fill="#000000" transform="translate(295,160)"/>
<path d="M0 0 C0.33 -1.65 0.66 -3.3 1 -5 C2.99954746 -5.04254356 5.00041636 -5.04080783 7 -5 C8.94863925 -3.05136075 8.1291874 -0.1019128 8.13894653 2.49121094 C8.1369223 3.40161133 8.13489807 4.31201172 8.1328125 5.25 C8.13376923 6.17844727 8.13472595 7.10689453 8.13571167 8.06347656 C8.13639355 10.03059965 8.13453872 11.99772496 8.13037109 13.96484375 C8.12502295 16.98703026 8.13031582 20.00906815 8.13671875 23.03125 C8.13605797 24.93750033 8.13477681 26.84375057 8.1328125 28.75 C8.13483673 29.66040039 8.13686096 30.57080078 8.13894653 31.50878906 C8.11494969 37.88505031 8.11494969 37.88505031 7 39 C5.00041636 39.04080783 2.99954746 39.04254356 1 39 C0.67 37.35 0.34 35.7 0 34 C-0.46148437 34.34933594 -0.92296875 34.69867188 -1.3984375 35.05859375 C-6.76542298 38.80275556 -11.41919373 40.36618159 -18 40 C-23.08023143 38.90947912 -27.35997728 36.74113446 -31 33 C-34.90096016 26.60822406 -36.76931181 20.55574097 -36 13 C-34.35069947 6.52406999 -31.46665587 0.27741627 -25.625 -3.3125 C-16.59988796 -7.51384526 -7.75992159 -6.12625388 0 0 Z M-23 5 C-27.06248509 9.4901151 -28.25874382 14.05924201 -28 20 C-26.47924291 25.15367682 -24.7219625 28.33106467 -20 31 C-15.52762903 32.19869462 -12.09413988 32.37159468 -7.6875 30.875 C-3.95858871 28.27343399 -1.60167827 26.25144126 -0.39453125 21.734375 C0.57390314 15.48269953 -0.31923199 11.15555385 -4 6 C-6.77777113 2.92461054 -9.8055078 2.30065853 -13.91015625 1.94140625 C-17.52552295 2.04277167 -19.92459185 3.16658361 -23 5 Z " fill="#000000" transform="translate(378,165)"/>
<path d="M0 0 C2.31 0 4.62 0 7 0 C7 14.52 7 29.04 7 44 C4.69 44 2.38 44 0 44 C0 29.48 0 14.96 0 0 Z " fill="#000000" transform="translate(430,160)"/>
<path d="M0 0 C3.97631086 5.81068631 5.69216058 11.96513158 5 19 C3.52279681 25.22286383 0.60789176 30.52894941 -4.78515625 34.22265625 C-11.46081611 37.92545764 -17.79863282 38.81360833 -25.1875 36.875 C-31.59389147 34.67000945 -36.04051164 31.26623801 -39.2421875 25.078125 C-41.70998951 18.31075041 -41.5969122 11.58206515 -38.93359375 4.9296875 C-35.87707113 -1.3879785 -31.21426146 -4.17136429 -25 -7 C-16.13018417 -9.83079229 -6.5847899 -6.14132445 0 0 Z M-31.015625 7.203125 C-33.30193219 11.37654288 -33.59981864 15.63821409 -32.4375 20.21484375 C-30.49839434 24.86350329 -27.93089578 27.48759056 -23.28515625 29.44140625 C-17.863696 30.76665209 -12.91195009 30.05767452 -8.0625 27.375 C-4.98057332 23.82611473 -3.06933202 20.52628544 -2.9375 15.72265625 C-3.29758982 11.21403167 -3.93049688 7.46556804 -7 4 C-15.60713512 -1.78886964 -24.31010566 -1.59242635 -31.015625 7.203125 Z " fill="#000000" transform="translate(487,167)"/>
<path d="M0 0 C2.31 0 4.62 0 7 0 C7.66 1.32 8.32 2.64 9 4 C9.721875 3.34 10.44375 2.68 11.1875 2 C16.18374282 -1.33877802 22.26785277 -0.7146952 28 0 C33.14241583 2.30522089 34.90375857 4.86904655 37 10 C37.24713645 12.75907028 37.35266646 15.27547925 37.29296875 18.0234375 C37.28872391 18.76961334 37.28447906 19.51578918 37.28010559 20.28457642 C37.26342382 22.64843098 37.22579339 25.01140676 37.1875 27.375 C37.17243949 28.9856647 37.15875348 30.59634287 37.14648438 32.20703125 C37.11355504 36.13835515 37.06184762 40.06902901 37 44 C34.69 44 32.38 44 30 44 C29.00620656 39.90836609 28.92930153 36.13964002 29 31.9375 C29.64409195 19.94370886 29.64409195 19.94370886 26 9 C21.61323356 7.61378181 17.85918931 7.68756752 13.5625 9.25 C10.88409866 11.07915213 9.3273761 12.56695745 8.5859375 15.8125 C7.91552489 22.76492709 7.93832583 29.68445607 8.03662109 36.66210938 C8.05906796 38.7746556 8.03383215 40.88760544 8 43 C7.505 43.495 7.505 43.495 7 44 C4.69 44 2.38 44 0 44 C0 29.48 0 14.96 0 0 Z " fill="#000000" transform="translate(501,160)"/>
<path d="M0 0 C0.495 0.433125 0.99 0.86625 1.5 1.3125 C1.5 -0.3375 1.5 -1.9875 1.5 -3.6875 C3.48 -3.6875 5.46 -3.6875 7.5 -3.6875 C7.5 10.1725 7.5 24.0325 7.5 38.3125 C5.52 38.3125 3.54 38.3125 1.5 38.3125 C0.84 36.9925 0.18 35.6725 -0.5 34.3125 C-1.4075 34.951875 -2.315 35.59125 -3.25 36.25 C-8.2393648 39.41632766 -12.60412134 39.91975342 -18.5 39.3125 C-24.81975199 37.27732563 -28.53048934 34.19642632 -32.25 28.75 C-35.20542159 22.98692791 -35.38518158 16.33415174 -34.00390625 10.05859375 C-31.80079454 3.49904646 -27.64405454 -0.5367028 -21.5 -3.6875 C-13.98499736 -6.44300097 -6.38969481 -4.313044 0 0 Z M-24.75 7.875 C-28.12161052 12.57117179 -28.11125966 16.64136868 -27.5 22.3125 C-26.24325118 26.00078459 -24.26613106 28.61396874 -21.375 31.25 C-17.04729994 32.84936742 -13.05432641 32.969374 -8.5 32.3125 C-4.0500055 30.12795725 -1.50669315 27.85396346 0.5 23.3125 C2.09213648 17.39885023 1.23744718 12.69371745 -1.5 7.3125 C-5.12414658 3.77674724 -7.79616732 2.16366973 -12.8125 2.0625 C-18.37402005 2.14271423 -21.06968495 3.68353008 -24.75 7.875 Z " fill="#000000" transform="translate(620.5,164.6875)"/>
<path d="M0 0 C3.96 0 7.92 0 12 0 C12 3.63 12 7.26 12 11 C8.04 11 4.08 11 0 11 C0 7.37 0 3.74 0 0 Z " fill="#000000" transform="translate(38,174)"/>
<path d="M0 0 C7.71484375 -0.09765625 7.71484375 -0.09765625 10 0 C11 1 11 1 11.1328125 3.03125 C11.13023438 3.8459375 11.12765625 4.660625 11.125 5.5 C11.12757812 6.3146875 11.13015625 7.129375 11.1328125 7.96875 C11 10 11 10 10 11 C6.66381769 11.14257189 3.34024394 11.04228157 0 11 C0 7.37 0 3.74 0 0 Z " fill="#000000" transform="translate(63,174)"/>
<path d="M0 0 C3.63 0 7.26 0 11 0 C11 3.63 11 7.26 11 11 C3.28515625 11.09765625 3.28515625 11.09765625 1 11 C0 10 0 10 -0.09765625 7.71484375 C-0.06510417 5.14322917 -0.03255208 2.57161458 0 0 Z " fill="#000000" transform="translate(38,198)"/>
<path d="M0 0 C1.2065625 0.0309375 1.2065625 0.0309375 2.4375 0.0625 C3.0975 1.7125 3.7575 3.3625 4.4375 5.0625 C3.1175 6.3825 1.7975 7.7025 0.4375 9.0625 C-1.2125 8.0725 -2.8625 7.0825 -4.5625 6.0625 C-3.48963568 0.08511307 -3.48963568 0.08511307 0 0 Z " fill="#000000" transform="translate(68.5625,199.9375)"/>
<path d="M0 0 C0.94875 0.04125 1.8975 0.0825 2.875 0.125 C3.205 2.435 3.535 4.745 3.875 7.125 C-0.75 9.25 -0.75 9.25 -4.125 8.125 C-4.75 5.25 -4.75 5.25 -5.125 2.125 C-3.125 0.125 -3.125 0.125 0 0 Z " fill="#000000" transform="translate(93.125,199.875)"/>
<path d="M0 0 C0.89589844 -0.01417969 1.79179687 -0.02835938 2.71484375 -0.04296875 C5.0625 0.1875 5.0625 0.1875 7.0625 2.1875 C7.10570247 4.52043334 7.10272391 6.8545134 7.0625 9.1875 C7.31 9.909375 7.5575 10.63125 7.8125 11.375 C8.0625 13.1875 8.0625 13.1875 6.6875 15.4375 C2.94306945 17.93378703 -0.54531175 17.73095534 -4.9375 17.1875 C-6.69309942 15.43190058 -6.06971919 13.15167558 -6.07421875 10.81640625 C-6.07035156 10.11386719 -6.06648438 9.41132813 -6.0625 8.6875 C-6.06636719 7.98496094 -6.07023437 7.28242188 -6.07421875 6.55859375 C-6.06270608 0.58351673 -5.9181689 0.04245458 0 0 Z M-2.9375 3.1875 C-2.6075 4.5075 -2.2775 5.8275 -1.9375 7.1875 C-0.2875 6.8575 1.3625 6.5275 3.0625 6.1875 C3.0625 5.1975 3.0625 4.2075 3.0625 3.1875 C1.0825 3.1875 -0.8975 3.1875 -2.9375 3.1875 Z M-2.9375 10.1875 C-2.6075 11.5075 -2.2775 12.8275 -1.9375 14.1875 C-0.2875 14.1875 1.3625 14.1875 3.0625 14.1875 C3.3925 12.8675 3.7225 11.5475 4.0625 10.1875 C0.47922247 9.18532936 0.47922247 9.18532936 -2.9375 10.1875 Z " fill="#000000" transform="translate(488.9375,239.8125)"/>
<path d="M0 0 C3.79588866 0.54226981 5.47211993 2.20127563 8 5 C8.6496875 3.7625 8.6496875 3.7625 9.3125 2.5 C9.869375 1.675 10.42625 0.85 11 0 C11.99 0 12.98 0 14 0 C12.16504854 4.7184466 12.16504854 4.7184466 10.9375 6.8125 C9.51539981 10.13073378 9.35851435 13.41485649 9 17 C8.01 17 7.02 17 6 17 C5.85304688 16.03900391 5.85304688 16.03900391 5.703125 15.05859375 C4.69296191 9.21532275 3.24025175 4.96838601 0 0 Z " fill="#000000" transform="translate(502,240)"/>
<path d="M0 0 C3.63 0 7.26 0 11 0 C10.67 0.99 10.34 1.98 10 3 C7.69 3 5.38 3 3 3 C3 4.32 3 5.64 3 7 C5.31 7 7.62 7 10 7 C10 7.99 10 8.98 10 10 C7.69 10 5.38 10 3 10 C3 11.98 3 13.96 3 16 C2.01 16.33 1.02 16.66 0 17 C0 11.39 0 5.78 0 0 Z " fill="#000000" transform="translate(535,240)"/>
<path d="M0 0 C3.63 0 7.26 0 11 0 C10.67 0.99 10.34 1.98 10 3 C7.69 3 5.38 3 3 3 C3.33 3.99 3.66 4.98 4 6 C6.97 6.495 6.97 6.495 10 7 C10 7.66 10 8.32 10 9 C8.02 9.33 6.04 9.66 4 10 C4 10.99 4 11.98 4 13 C6.31 13.33 8.62 13.66 11 14 C11 14.99 11 15.98 11 17 C9.35425434 17.02688151 7.70838587 17.04634123 6.0625 17.0625 C5.14597656 17.07410156 4.22945312 17.08570313 3.28515625 17.09765625 C1 17 1 17 0 16 C-0.07319621 13.30345146 -0.09242537 10.63308542 -0.0625 7.9375 C-0.05798828 7.17888672 -0.05347656 6.42027344 -0.04882812 5.63867188 C-0.0370068 3.75908129 -0.01907078 1.87953101 0 0 Z " fill="#000000" transform="translate(556,240)"/>
<path d="M0 0 C4.29 0 8.58 0 13 0 C12.67 0.99 12.34 1.98 12 3 C10.68 3 9.36 3 8 3 C8 7.29 8 11.58 8 16 C7.01 16 6.02 16 5 16 C5 11.71 5 7.42 5 3 C3.35 2.67 1.7 2.34 0 2 C0 1.34 0 0.68 0 0 Z " fill="#000000" transform="translate(577,240)"/>
<path d="M0 0 C0.70125 -0.02578125 1.4025 -0.0515625 2.125 -0.078125 C2.74375 0.03015625 3.3625 0.1384375 4 0.25 C4.66 1.24 5.32 2.23 6 3.25 C2.80285048 4.31571651 0.34084942 4.25 -3 4.25 C-4.41577477 5.43424326 -4.41577477 5.43424326 -4.0625 8.8125 C-4.041875 9.946875 -4.02125 11.08125 -4 12.25 C0.48133574 12.97256829 0.48133574 12.97256829 5 13.25 C5 14.24 5 15.23 5 16.25 C2.14675563 17.67662219 0.16545451 17.56033868 -3 17.25 C-6.3795917 15.29734702 -7.71224763 14.07728805 -9 10.375 C-9 6.55811493 -8.01521421 4.45941522 -6 1.25 C-3.78704384 0.14352192 -2.45327301 0.05411632 0 0 Z " fill="#000000" transform="translate(605,239.75)"/>
<path d="M0 0 C0.99 0 1.98 0 3 0 C3.33 1.98 3.66 3.96 4 6 C6.31 6.33 8.62 6.66 11 7 C11 4.69 11 2.38 11 0 C11.99 0 12.98 0 14 0 C14 5.61 14 11.22 14 17 C13.01 16.67 12.02 16.34 11 16 C11 14.02 11 12.04 11 10 C8.36 10 5.72 10 3 10 C3 12.31 3 14.62 3 17 C2.01 16.67 1.02 16.34 0 16 C0 10.72 0 5.44 0 0 Z " fill="#000000" transform="translate(619,240)"/>
<path d="M0 0 C0.99 0 1.98 0 3 0 C4.03275341 2.26607052 5.05133551 4.53681939 6.0625 6.8125 C6.35705078 7.45509766 6.65160156 8.09769531 6.95507812 8.75976562 C9.11328125 13.66015625 9.11328125 13.66015625 8 17 C7.34 17 6.68 17 6 17 C5.67 15.68 5.34 14.36 5 13 C1.56769552 13.26393501 1.56769552 13.26393501 -2 14 C-2.99 15.485 -2.99 15.485 -4 17 C-4.66 17 -5.32 17 -6 17 C-5.45388522 11.81190963 -3.84540159 3.84540159 0 0 Z M1 5 C0.34 6.65 -0.32 8.3 -1 10 C0.32 10 1.64 10 3 10 C2.67 8.35 2.34 6.7 2 5 C1.67 5 1.34 5 1 5 Z " fill="#000000" transform="translate(662,240)"/>
<path d="M0 0 C0.99 0 1.98 0 3 0 C3 5.61 3 11.22 3 17 C2.01 16.67 1.02 16.34 0 16 C0 10.72 0 5.44 0 0 Z " fill="#000000" transform="translate(678,240)"/>
</svg>
