<svg width="360" height="360" xmlns="http://www.w3.org/2000/svg" data-name="Layer 1">

 <g>
  <title>Layer 1</title>
  <path id="svg_1" stroke-width="0.88px" stroke-miterlimit="10" stroke="#000000" fill="#000000" d="m100.06,13.87l0,40.73c0,3.24 -2.65,5.9 -5.9,5.9l-1.34,0c-3.24,0 -5.9,-2.65 -5.9,-5.9l0,-40.73c0,-3.24 -2.65,-5.9 -5.9,-5.9l-60.41,0c-3.24,0 -5.9,2.65 -5.9,5.9l0,145.78c0,3.24 2.65,5.9 5.9,5.9l60.43,0c3.24,0 5.9,-2.65 5.9,-5.9l0,-40.73c0,-3.24 2.65,-5.9 5.9,-5.9l1.34,0c3.24,0 5.9,2.65 5.9,5.9l0,40.73c0,3.24 2.65,5.9 5.9,5.9l60.43,0c3.24,0 5.9,-2.65 5.9,-5.9l0,-145.78c0,-3.24 -2.65,-5.9 -5.9,-5.9l-60.43,0c-3.24,0 -5.9,2.65 -5.9,5.9l-0.02,0z" class="cls-3"/>
  <path id="svg_2" stroke-width="2.36px" stroke-miterlimit="10" stroke="#000000" fill="#000000" d="m191.67,338.9l0,-145.78c0,-3.24 2.65,-5.9 5.9,-5.9l141.41,0c5.65,0 7.94,3.99 5.09,8.87l-39.05,66.95c-0.95,1.63 -0.95,4.31 0,5.94l39.05,66.95c2.85,4.88 0.55,8.87 -5.09,8.87l-141.41,0c-3.24,0 -5.9,-2.65 -5.9,-5.9z" class="cls-4"/>
  <path id="svg_3" stroke-width="2.42px" stroke-miterlimit="10" stroke="#000000" fill="#000000" d="m144.22,262.45l27.2,-43.21c1.25,-1.99 1.13,-5.15 -0.29,-7.02c-16.35,-21.51 -41.55,-32.75 -68.99,-32.76c-47.94,-0.02 -87.43,38.88 -87.43,86.29s38.97,86.28 87.43,86.28c27.69,0 53.06,-11.78 69,-32.76c1.42,-1.87 1.53,-5.03 0.29,-7.01l-27.2,-43.21c-1.14,-1.81 -1.14,-4.77 0,-6.58l-0.01,-0.02z" class="cls-2"/>
  <path id="svg_4" stroke-miterlimit="10" stroke="#000000" fill="#000000" stroke-width="2.4px" d="m192.89,157.3l70.31,-141.18c2.9,-5.83 7.66,-5.83 10.56,0l70.31,141.18c2.34,4.69 -0.04,8.53 -5.28,8.53l-140.61,0c-5.24,0 -7.61,-3.84 -5.28,-8.53l-0.01,0z" class="cls-1"/>
 </g>
</svg>