<?xml version="1.0" encoding="UTF-8"?>
<svg id="Layer_1" data-name="Layer 1" xmlns="http://www.w3.org/2000/svg" viewBox="0 0 360 360">
  <defs>
    <style>
      .cls-1 {
        stroke-width: 2.4px;
      }

      .cls-1, .cls-2, .cls-3, .cls-4 {
        fill: #fff;
        stroke: #fff;
        stroke-miterlimit: 10;
      }

      .cls-2 {
        stroke-width: 2.42px;
      }

      .cls-3 {
        stroke-width: .88px;
      }

      .cls-4 {
        stroke-width: 2.36px;
      }
    </style>
  </defs>
  <path class="cls-3" d="M100.06,13.87v40.73c0,3.24-2.65,5.9-5.9,5.9h-1.34c-3.24,0-5.9-2.65-5.9-5.9V13.87c0-3.24-2.65-5.9-5.9-5.9H20.61c-3.24,0-5.9,2.65-5.9,5.9v145.78c0,3.24,2.65,5.9,5.9,5.9h60.43c3.24,0,5.9-2.65,5.9-5.9v-40.73c0-3.24,2.65-5.9,5.9-5.9h1.34c3.24,0,5.9,2.65,5.9,5.9v40.73c0,3.24,2.65,5.9,5.9,5.9h60.43c3.24,0,5.9-2.65,5.9-5.9V13.87c0-3.24-2.65-5.9-5.9-5.9h-60.43c-3.24,0-5.9,2.65-5.9,5.9Z"/>
  <path class="cls-4" d="M191.67,338.9v-145.78c0-3.24,2.65-5.9,5.9-5.9h141.41c5.65,0,7.94,3.99,5.09,8.87l-39.05,66.95c-.95,1.63-.95,4.31,0,5.94l39.05,66.95c2.85,4.88.55,8.87-5.09,8.87h-141.41c-3.24,0-5.9-2.65-5.9-5.9Z"/>
  <path class="cls-2" d="M144.22,262.45l27.2-43.21c1.25-1.99,1.13-5.15-.29-7.02-16.35-21.51-41.55-32.75-68.99-32.76-47.94-.02-87.43,38.88-87.43,86.29s38.97,86.28,87.43,86.28c27.69,0,53.06-11.78,69-32.76,1.42-1.87,1.53-5.03.29-7.01l-27.2-43.21c-1.14-1.81-1.14-4.77,0-6.58Z"/>
  <path class="cls-1" d="M192.89,157.3L263.2,16.12c2.9-5.83,7.66-5.83,10.56,0l70.31,141.18c2.34,4.69-.04,8.53-5.28,8.53h-140.61c-5.24,0-7.61-3.84-5.28-8.53Z"/>
</svg>