<svg width="606" height="149" viewBox="0 0 606 149" fill="none" xmlns="http://www.w3.org/2000/svg">
<path fill-rule="evenodd" clip-rule="evenodd" d="M490.576 135.564C500.801 144.393 520.702 148.816 540.571 148.816H540.587C560.472 148.816 580.357 144.393 590.597 135.564C600.822 126.735 605.951 114.212 605.951 97.9954V51.533C605.951 35.0898 600.854 22.3888 590.678 13.43C580.502 4.47127 560.633 0 540.764 0C520.896 0 500.962 4.47127 490.673 13.43C480.368 22.3726 475.223 35.0736 475.223 51.533V97.9954C475.223 114.212 480.335 126.735 490.576 135.564ZM568.439 118.229C563.923 122.652 551.408 124.855 540.571 124.855C529.733 124.855 517.219 122.652 512.703 118.229C508.187 113.807 505.929 106.225 505.929 95.4519V54.0765C505.929 43.0603 508.187 35.2842 512.703 30.7481C517.219 26.212 529.733 23.944 540.571 23.944C551.408 23.944 563.923 26.1958 568.439 30.7481C572.954 35.3004 575.212 43.0765 575.212 54.0765V95.4519C575.212 106.225 572.954 113.807 568.439 118.229ZM340.195 34.3014L401.9 146.349H401.908H444.193V2.46639H417.628V114.867L355.923 2.46639H313.457C313.457 2.46639 313.507 11.9297 313.457 26.5564C313.408 42.3123 317.76 51.0407 321.628 58.8C324.875 65.3135 327.782 71.144 327.459 79.8751C327.207 86.737 324.386 90.2025 321.335 93.9496C317.821 98.2661 314.003 102.956 313.457 113.642C312.997 122.76 313.457 146.349 313.457 146.349H340.195V34.3014ZM165.726 135.545C175.173 144.4 195.464 148.815 216.899 148.815H216.932C238.366 148.815 258.633 144.392 268.105 135.545C277.551 126.69 282.279 112.985 282.279 94.4361V2.47462H251.57V91.9037C251.57 103.464 249.523 111.661 245.429 116.487C241.318 121.305 228.607 123.714 216.915 123.714C205.224 123.714 192.858 122.44 187.382 117.243C183.082 113.157 178.338 103.003 175.083 91.9037C172.805 84.1588 171.292 76.2904 172.304 61.7542C173.039 51.2162 175.229 45.1814 177.339 39.3691C179.028 34.7151 180.666 30.2038 181.463 23.6377C183.304 8.53412 182.26 2.46639 182.26 2.46639H151.552C151.552 2.46639 148.748 26.2769 152.127 41.0187C153.008 44.8578 154.25 47.1329 155.503 49.4291C156.811 51.8243 158.13 54.2423 159.066 58.4819C160.799 66.311 158.011 75.1473 155.465 83.2206C154.168 87.3307 152.934 91.2429 152.39 94.7238C149.521 113.067 156.279 126.69 165.726 135.545ZM48.8215 139.291C43.5184 142.192 37.5728 145.444 27.831 142.484C17.1014 138.817 7.82721 133.144 0 125.457L10.6637 104.746C18.3758 111.225 26.6553 116.1 35.5102 119.332C44.3651 122.579 54.4533 124.191 65.7748 124.191C74.8107 124.191 81.6841 122.563 86.3788 119.332C91.0735 116.084 93.4249 111.406 93.4249 105.281C93.4249 99.7636 90.6788 95.7596 85.1949 93.3013C79.7109 90.8429 68.1098 88.1133 50.4164 85.1041C33.43 82.4731 21.4508 78.1813 14.4622 72.2286C7.48186 66.2842 3.97935 57.3717 3.97935 45.4747C3.97935 32.624 8.80559 21.9684 18.4334 13.5082C28.0858 5.06431 42.1863 0.821833 60.7348 0.821833C71.9494 0.821833 82.6296 2.65531 92.8083 6.32225C102.987 9.9892 111.036 15.0539 116.939 21.5491L107.534 41.3556C100.307 35.888 92.7343 31.736 84.8495 28.8748C76.9647 26.03 68.7347 24.5994 60.1839 24.5994C52.2252 24.5994 45.9684 26.0136 41.3888 28.8419C36.8092 31.6702 34.5153 36.0443 34.5153 41.964C34.5153 47.5137 37.319 51.5013 42.918 53.9104C48.5089 56.3194 60.3484 59.1066 78.4201 62.2391C95.168 65.1167 106.975 69.6223 113.848 75.7476C120.721 81.8729 124.158 90.8758 124.158 102.756C124.158 117.046 118.641 128.145 107.624 136.071C96.6068 143.997 88.3521 144.474 86.6419 144.441C81.173 144.345 76.1992 142.06 71.4368 139.872C67.2638 137.955 63.2531 136.113 59.2138 135.882C55.4438 135.668 52.2683 137.406 48.8215 139.291Z" fill="#FFFFFF"/>
</svg>
